<svg xmlns="http://www.w3.org/2000/svg" viewBox="0 0 1920 1080" opacity="0.6">
    <defs>
        <filter id="glow" x="-20%" y="-20%" width="140%" height="140%">
            <feGaussianBlur stdDeviation="3" result="blur" />
            <feComposite in="SourceGraphic" in2="blur" operator="over" />
        </filter>
    </defs>
    <rect width="100%" height="100%" fill="#ffffff"/>
<rect x="1558" y="696" width="47" height="46" fill="#a5f3fc" fill-opacity="0.2" stroke="#a5f3fc" stroke-opacity="0.8" stroke-width="2" rx="4" /><line x1="1563" y1="696" x2="1563" y2="691" stroke="#a5f3fc" stroke-width="2" stroke-opacity="0.5" /><line x1="1563" y1="742" x2="1563" y2="747" stroke="#a5f3fc" stroke-width="2" stroke-opacity="0.5" /><line x1="1573" y1="696" x2="1573" y2="691" stroke="#a5f3fc" stroke-width="2" stroke-opacity="0.5" /><line x1="1573" y1="742" x2="1573" y2="747" stroke="#a5f3fc" stroke-width="2" stroke-opacity="0.5" /><line x1="1583" y1="696" x2="1583" y2="691" stroke="#a5f3fc" stroke-width="2" stroke-opacity="0.5" /><line x1="1583" y1="742" x2="1583" y2="747" stroke="#a5f3fc" stroke-width="2" stroke-opacity="0.5" /><line x1="1593" y1="696" x2="1593" y2="691" stroke="#a5f3fc" stroke-width="2" stroke-opacity="0.5" /><line x1="1593" y1="742" x2="1593" y2="747" stroke="#a5f3fc" stroke-width="2" stroke-opacity="0.5" /><line x1="1603" y1="696" x2="1603" y2="691" stroke="#a5f3fc" stroke-width="2" stroke-opacity="0.5" /><line x1="1603" y1="742" x2="1603" y2="747" stroke="#a5f3fc" stroke-width="2" stroke-opacity="0.5" /><rect x="1159" y="893" width="68" height="58" fill="#ddd6fe" fill-opacity="0.2" stroke="#ddd6fe" stroke-opacity="0.8" stroke-width="2" rx="4" /><line x1="1164" y1="893" x2="1164" y2="888" stroke="#ddd6fe" stroke-width="2" stroke-opacity="0.5" /><line x1="1164" y1="951" x2="1164" y2="956" stroke="#ddd6fe" stroke-width="2" stroke-opacity="0.5" /><line x1="1174" y1="893" x2="1174" y2="888" stroke="#ddd6fe" stroke-width="2" stroke-opacity="0.5" /><line x1="1174" y1="951" x2="1174" y2="956" stroke="#ddd6fe" stroke-width="2" stroke-opacity="0.5" /><line x1="1184" y1="893" x2="1184" y2="888" stroke="#ddd6fe" stroke-width="2" stroke-opacity="0.5" /><line x1="1184" y1="951" x2="1184" y2="956" stroke="#ddd6fe" stroke-width="2" stroke-opacity="0.5" /><line x1="1194" y1="893" x2="1194" y2="888" stroke="#ddd6fe" stroke-width="2" stroke-opacity="0.5" /><line x1="1194" y1="951" x2="1194" y2="956" stroke="#ddd6fe" stroke-width="2" stroke-opacity="0.5" /><line x1="1204" y1="893" x2="1204" y2="888" stroke="#ddd6fe" stroke-width="2" stroke-opacity="0.5" /><line x1="1204" y1="951" x2="1204" y2="956" stroke="#ddd6fe" stroke-width="2" stroke-opacity="0.5" /><line x1="1214" y1="893" x2="1214" y2="888" stroke="#ddd6fe" stroke-width="2" stroke-opacity="0.5" /><line x1="1214" y1="951" x2="1214" y2="956" stroke="#ddd6fe" stroke-width="2" stroke-opacity="0.5" /><line x1="1224" y1="893" x2="1224" y2="888" stroke="#ddd6fe" stroke-width="2" stroke-opacity="0.5" /><line x1="1224" y1="951" x2="1224" y2="956" stroke="#ddd6fe" stroke-width="2" stroke-opacity="0.5" /><rect x="1070" y="475" width="52" height="92" fill="#bae6fd" fill-opacity="0.2" stroke="#bae6fd" stroke-opacity="0.8" stroke-width="2" rx="4" /><line x1="1075" y1="475" x2="1075" y2="470" stroke="#bae6fd" stroke-width="2" stroke-opacity="0.5" /><line x1="1075" y1="567" x2="1075" y2="572" stroke="#bae6fd" stroke-width="2" stroke-opacity="0.5" /><line x1="1085" y1="475" x2="1085" y2="470" stroke="#bae6fd" stroke-width="2" stroke-opacity="0.5" /><line x1="1085" y1="567" x2="1085" y2="572" stroke="#bae6fd" stroke-width="2" stroke-opacity="0.5" /><line x1="1095" y1="475" x2="1095" y2="470" stroke="#bae6fd" stroke-width="2" stroke-opacity="0.5" /><line x1="1095" y1="567" x2="1095" y2="572" stroke="#bae6fd" stroke-width="2" stroke-opacity="0.5" /><line x1="1105" y1="475" x2="1105" y2="470" stroke="#bae6fd" stroke-width="2" stroke-opacity="0.5" /><line x1="1105" y1="567" x2="1105" y2="572" stroke="#bae6fd" stroke-width="2" stroke-opacity="0.5" /><line x1="1115" y1="475" x2="1115" y2="470" stroke="#bae6fd" stroke-width="2" stroke-opacity="0.5" /><line x1="1115" y1="567" x2="1115" y2="572" stroke="#bae6fd" stroke-width="2" stroke-opacity="0.5" /><rect x="1607" y="120" width="43" height="55" fill="#a5f3fc" fill-opacity="0.2" stroke="#a5f3fc" stroke-opacity="0.8" stroke-width="2" rx="4" /><line x1="1612" y1="120" x2="1612" y2="115" stroke="#a5f3fc" stroke-width="2" stroke-opacity="0.5" /><line x1="1612" y1="175" x2="1612" y2="180" stroke="#a5f3fc" stroke-width="2" stroke-opacity="0.5" /><line x1="1622" y1="120" x2="1622" y2="115" stroke="#a5f3fc" stroke-width="2" stroke-opacity="0.5" /><line x1="1622" y1="175" x2="1622" y2="180" stroke="#a5f3fc" stroke-width="2" stroke-opacity="0.5" /><line x1="1632" y1="120" x2="1632" y2="115" stroke="#a5f3fc" stroke-width="2" stroke-opacity="0.5" /><line x1="1632" y1="175" x2="1632" y2="180" stroke="#a5f3fc" stroke-width="2" stroke-opacity="0.5" /><line x1="1642" y1="120" x2="1642" y2="115" stroke="#a5f3fc" stroke-width="2" stroke-opacity="0.5" /><line x1="1642" y1="175" x2="1642" y2="180" stroke="#a5f3fc" stroke-width="2" stroke-opacity="0.5" /><rect x="555" y="317" width="82" height="99" fill="#bae6fd" fill-opacity="0.2" stroke="#bae6fd" stroke-opacity="0.8" stroke-width="2" rx="4" /><line x1="560" y1="317" x2="560" y2="312" stroke="#bae6fd" stroke-width="2" stroke-opacity="0.5" /><line x1="560" y1="416" x2="560" y2="421" stroke="#bae6fd" stroke-width="2" stroke-opacity="0.5" /><line x1="570" y1="317" x2="570" y2="312" stroke="#bae6fd" stroke-width="2" stroke-opacity="0.5" /><line x1="570" y1="416" x2="570" y2="421" stroke="#bae6fd" stroke-width="2" stroke-opacity="0.5" /><line x1="580" y1="317" x2="580" y2="312" stroke="#bae6fd" stroke-width="2" stroke-opacity="0.5" /><line x1="580" y1="416" x2="580" y2="421" stroke="#bae6fd" stroke-width="2" stroke-opacity="0.5" /><line x1="590" y1="317" x2="590" y2="312" stroke="#bae6fd" stroke-width="2" stroke-opacity="0.5" /><line x1="590" y1="416" x2="590" y2="421" stroke="#bae6fd" stroke-width="2" stroke-opacity="0.5" /><line x1="600" y1="317" x2="600" y2="312" stroke="#bae6fd" stroke-width="2" stroke-opacity="0.5" /><line x1="600" y1="416" x2="600" y2="421" stroke="#bae6fd" stroke-width="2" stroke-opacity="0.5" /><line x1="610" y1="317" x2="610" y2="312" stroke="#bae6fd" stroke-width="2" stroke-opacity="0.5" /><line x1="610" y1="416" x2="610" y2="421" stroke="#bae6fd" stroke-width="2" stroke-opacity="0.5" /><line x1="620" y1="317" x2="620" y2="312" stroke="#bae6fd" stroke-width="2" stroke-opacity="0.5" /><line x1="620" y1="416" x2="620" y2="421" stroke="#bae6fd" stroke-width="2" stroke-opacity="0.5" /><line x1="630" y1="317" x2="630" y2="312" stroke="#bae6fd" stroke-width="2" stroke-opacity="0.5" /><line x1="630" y1="416" x2="630" y2="421" stroke="#bae6fd" stroke-width="2" stroke-opacity="0.5" /><rect x="787" y="223" width="54" height="55" fill="#fecaca" fill-opacity="0.2" stroke="#fecaca" stroke-opacity="0.8" stroke-width="2" rx="4" /><line x1="792" y1="223" x2="792" y2="218" stroke="#fecaca" stroke-width="2" stroke-opacity="0.5" /><line x1="792" y1="278" x2="792" y2="283" stroke="#fecaca" stroke-width="2" stroke-opacity="0.5" /><line x1="802" y1="223" x2="802" y2="218" stroke="#fecaca" stroke-width="2" stroke-opacity="0.5" /><line x1="802" y1="278" x2="802" y2="283" stroke="#fecaca" stroke-width="2" stroke-opacity="0.5" /><line x1="812" y1="223" x2="812" y2="218" stroke="#fecaca" stroke-width="2" stroke-opacity="0.5" /><line x1="812" y1="278" x2="812" y2="283" stroke="#fecaca" stroke-width="2" stroke-opacity="0.5" /><line x1="822" y1="223" x2="822" y2="218" stroke="#fecaca" stroke-width="2" stroke-opacity="0.5" /><line x1="822" y1="278" x2="822" y2="283" stroke="#fecaca" stroke-width="2" stroke-opacity="0.5" /><line x1="832" y1="223" x2="832" y2="218" stroke="#fecaca" stroke-width="2" stroke-opacity="0.5" /><line x1="832" y1="278" x2="832" y2="283" stroke="#fecaca" stroke-width="2" stroke-opacity="0.5" /><rect x="63" y="20" width="93" height="91" fill="#bae6fd" fill-opacity="0.2" stroke="#bae6fd" stroke-opacity="0.8" stroke-width="2" rx="4" /><line x1="68" y1="20" x2="68" y2="15" stroke="#bae6fd" stroke-width="2" stroke-opacity="0.5" /><line x1="68" y1="111" x2="68" y2="116" stroke="#bae6fd" stroke-width="2" stroke-opacity="0.5" /><line x1="78" y1="20" x2="78" y2="15" stroke="#bae6fd" stroke-width="2" stroke-opacity="0.5" /><line x1="78" y1="111" x2="78" y2="116" stroke="#bae6fd" stroke-width="2" stroke-opacity="0.5" /><line x1="88" y1="20" x2="88" y2="15" stroke="#bae6fd" stroke-width="2" stroke-opacity="0.5" /><line x1="88" y1="111" x2="88" y2="116" stroke="#bae6fd" stroke-width="2" stroke-opacity="0.5" /><line x1="98" y1="20" x2="98" y2="15" stroke="#bae6fd" stroke-width="2" stroke-opacity="0.5" /><line x1="98" y1="111" x2="98" y2="116" stroke="#bae6fd" stroke-width="2" stroke-opacity="0.5" /><line x1="108" y1="20" x2="108" y2="15" stroke="#bae6fd" stroke-width="2" stroke-opacity="0.5" /><line x1="108" y1="111" x2="108" y2="116" stroke="#bae6fd" stroke-width="2" stroke-opacity="0.5" /><line x1="118" y1="20" x2="118" y2="15" stroke="#bae6fd" stroke-width="2" stroke-opacity="0.5" /><line x1="118" y1="111" x2="118" y2="116" stroke="#bae6fd" stroke-width="2" stroke-opacity="0.5" /><line x1="128" y1="20" x2="128" y2="15" stroke="#bae6fd" stroke-width="2" stroke-opacity="0.5" /><line x1="128" y1="111" x2="128" y2="116" stroke="#bae6fd" stroke-width="2" stroke-opacity="0.5" /><line x1="138" y1="20" x2="138" y2="15" stroke="#bae6fd" stroke-width="2" stroke-opacity="0.5" /><line x1="138" y1="111" x2="138" y2="116" stroke="#bae6fd" stroke-width="2" stroke-opacity="0.5" /><line x1="148" y1="20" x2="148" y2="15" stroke="#bae6fd" stroke-width="2" stroke-opacity="0.5" /><line x1="148" y1="111" x2="148" y2="116" stroke="#bae6fd" stroke-width="2" stroke-opacity="0.5" /><rect x="1590" y="131" width="46" height="95" fill="#fde68a" fill-opacity="0.2" stroke="#fde68a" stroke-opacity="0.8" stroke-width="2" rx="4" /><line x1="1595" y1="131" x2="1595" y2="126" stroke="#fde68a" stroke-width="2" stroke-opacity="0.5" /><line x1="1595" y1="226" x2="1595" y2="231" stroke="#fde68a" stroke-width="2" stroke-opacity="0.5" /><line x1="1605" y1="131" x2="1605" y2="126" stroke="#fde68a" stroke-width="2" stroke-opacity="0.5" /><line x1="1605" y1="226" x2="1605" y2="231" stroke="#fde68a" stroke-width="2" stroke-opacity="0.5" /><line x1="1615" y1="131" x2="1615" y2="126" stroke="#fde68a" stroke-width="2" stroke-opacity="0.5" /><line x1="1615" y1="226" x2="1615" y2="231" stroke="#fde68a" stroke-width="2" stroke-opacity="0.5" /><line x1="1625" y1="131" x2="1625" y2="126" stroke="#fde68a" stroke-width="2" stroke-opacity="0.5" /><line x1="1625" y1="226" x2="1625" y2="231" stroke="#fde68a" stroke-width="2" stroke-opacity="0.5" /><line x1="1635" y1="131" x2="1635" y2="126" stroke="#fde68a" stroke-width="2" stroke-opacity="0.5" /><line x1="1635" y1="226" x2="1635" y2="231" stroke="#fde68a" stroke-width="2" stroke-opacity="0.5" /><rect x="877" y="363" width="87" height="47" fill="#a5f3fc" fill-opacity="0.2" stroke="#a5f3fc" stroke-opacity="0.8" stroke-width="2" rx="4" /><line x1="882" y1="363" x2="882" y2="358" stroke="#a5f3fc" stroke-width="2" stroke-opacity="0.5" /><line x1="882" y1="410" x2="882" y2="415" stroke="#a5f3fc" stroke-width="2" stroke-opacity="0.5" /><line x1="892" y1="363" x2="892" y2="358" stroke="#a5f3fc" stroke-width="2" stroke-opacity="0.5" /><line x1="892" y1="410" x2="892" y2="415" stroke="#a5f3fc" stroke-width="2" stroke-opacity="0.5" /><line x1="902" y1="363" x2="902" y2="358" stroke="#a5f3fc" stroke-width="2" stroke-opacity="0.5" /><line x1="902" y1="410" x2="902" y2="415" stroke="#a5f3fc" stroke-width="2" stroke-opacity="0.5" /><line x1="912" y1="363" x2="912" y2="358" stroke="#a5f3fc" stroke-width="2" stroke-opacity="0.5" /><line x1="912" y1="410" x2="912" y2="415" stroke="#a5f3fc" stroke-width="2" stroke-opacity="0.5" /><line x1="922" y1="363" x2="922" y2="358" stroke="#a5f3fc" stroke-width="2" stroke-opacity="0.5" /><line x1="922" y1="410" x2="922" y2="415" stroke="#a5f3fc" stroke-width="2" stroke-opacity="0.5" /><line x1="932" y1="363" x2="932" y2="358" stroke="#a5f3fc" stroke-width="2" stroke-opacity="0.5" /><line x1="932" y1="410" x2="932" y2="415" stroke="#a5f3fc" stroke-width="2" stroke-opacity="0.5" /><line x1="942" y1="363" x2="942" y2="358" stroke="#a5f3fc" stroke-width="2" stroke-opacity="0.5" /><line x1="942" y1="410" x2="942" y2="415" stroke="#a5f3fc" stroke-width="2" stroke-opacity="0.5" /><line x1="952" y1="363" x2="952" y2="358" stroke="#a5f3fc" stroke-width="2" stroke-opacity="0.5" /><line x1="952" y1="410" x2="952" y2="415" stroke="#a5f3fc" stroke-width="2" stroke-opacity="0.5" /><line x1="962" y1="363" x2="962" y2="358" stroke="#a5f3fc" stroke-width="2" stroke-opacity="0.5" /><line x1="962" y1="410" x2="962" y2="415" stroke="#a5f3fc" stroke-width="2" stroke-opacity="0.5" /><rect x="1654" y="116" width="98" height="47" fill="#fde68a" fill-opacity="0.2" stroke="#fde68a" stroke-opacity="0.8" stroke-width="2" rx="4" /><line x1="1659" y1="116" x2="1659" y2="111" stroke="#fde68a" stroke-width="2" stroke-opacity="0.5" /><line x1="1659" y1="163" x2="1659" y2="168" stroke="#fde68a" stroke-width="2" stroke-opacity="0.5" /><line x1="1669" y1="116" x2="1669" y2="111" stroke="#fde68a" stroke-width="2" stroke-opacity="0.5" /><line x1="1669" y1="163" x2="1669" y2="168" stroke="#fde68a" stroke-width="2" stroke-opacity="0.5" /><line x1="1679" y1="116" x2="1679" y2="111" stroke="#fde68a" stroke-width="2" stroke-opacity="0.5" /><line x1="1679" y1="163" x2="1679" y2="168" stroke="#fde68a" stroke-width="2" stroke-opacity="0.5" /><line x1="1689" y1="116" x2="1689" y2="111" stroke="#fde68a" stroke-width="2" stroke-opacity="0.5" /><line x1="1689" y1="163" x2="1689" y2="168" stroke="#fde68a" stroke-width="2" stroke-opacity="0.5" /><line x1="1699" y1="116" x2="1699" y2="111" stroke="#fde68a" stroke-width="2" stroke-opacity="0.5" /><line x1="1699" y1="163" x2="1699" y2="168" stroke="#fde68a" stroke-width="2" stroke-opacity="0.5" /><line x1="1709" y1="116" x2="1709" y2="111" stroke="#fde68a" stroke-width="2" stroke-opacity="0.5" /><line x1="1709" y1="163" x2="1709" y2="168" stroke="#fde68a" stroke-width="2" stroke-opacity="0.5" /><line x1="1719" y1="116" x2="1719" y2="111" stroke="#fde68a" stroke-width="2" stroke-opacity="0.5" /><line x1="1719" y1="163" x2="1719" y2="168" stroke="#fde68a" stroke-width="2" stroke-opacity="0.5" /><line x1="1729" y1="116" x2="1729" y2="111" stroke="#fde68a" stroke-width="2" stroke-opacity="0.5" /><line x1="1729" y1="163" x2="1729" y2="168" stroke="#fde68a" stroke-width="2" stroke-opacity="0.5" /><line x1="1739" y1="116" x2="1739" y2="111" stroke="#fde68a" stroke-width="2" stroke-opacity="0.5" /><line x1="1739" y1="163" x2="1739" y2="168" stroke="#fde68a" stroke-width="2" stroke-opacity="0.5" /><line x1="1749" y1="116" x2="1749" y2="111" stroke="#fde68a" stroke-width="2" stroke-opacity="0.5" /><line x1="1749" y1="163" x2="1749" y2="168" stroke="#fde68a" stroke-width="2" stroke-opacity="0.5" /><rect x="1018" y="996" width="95" height="81" fill="#fecaca" fill-opacity="0.2" stroke="#fecaca" stroke-opacity="0.8" stroke-width="2" rx="4" /><line x1="1023" y1="996" x2="1023" y2="991" stroke="#fecaca" stroke-width="2" stroke-opacity="0.5" /><line x1="1023" y1="1077" x2="1023" y2="1082" stroke="#fecaca" stroke-width="2" stroke-opacity="0.5" /><line x1="1033" y1="996" x2="1033" y2="991" stroke="#fecaca" stroke-width="2" stroke-opacity="0.5" /><line x1="1033" y1="1077" x2="1033" y2="1082" stroke="#fecaca" stroke-width="2" stroke-opacity="0.5" /><line x1="1043" y1="996" x2="1043" y2="991" stroke="#fecaca" stroke-width="2" stroke-opacity="0.5" /><line x1="1043" y1="1077" x2="1043" y2="1082" stroke="#fecaca" stroke-width="2" stroke-opacity="0.5" /><line x1="1053" y1="996" x2="1053" y2="991" stroke="#fecaca" stroke-width="2" stroke-opacity="0.5" /><line x1="1053" y1="1077" x2="1053" y2="1082" stroke="#fecaca" stroke-width="2" stroke-opacity="0.5" /><line x1="1063" y1="996" x2="1063" y2="991" stroke="#fecaca" stroke-width="2" stroke-opacity="0.5" /><line x1="1063" y1="1077" x2="1063" y2="1082" stroke="#fecaca" stroke-width="2" stroke-opacity="0.5" /><line x1="1073" y1="996" x2="1073" y2="991" stroke="#fecaca" stroke-width="2" stroke-opacity="0.5" /><line x1="1073" y1="1077" x2="1073" y2="1082" stroke="#fecaca" stroke-width="2" stroke-opacity="0.5" /><line x1="1083" y1="996" x2="1083" y2="991" stroke="#fecaca" stroke-width="2" stroke-opacity="0.5" /><line x1="1083" y1="1077" x2="1083" y2="1082" stroke="#fecaca" stroke-width="2" stroke-opacity="0.5" /><line x1="1093" y1="996" x2="1093" y2="991" stroke="#fecaca" stroke-width="2" stroke-opacity="0.5" /><line x1="1093" y1="1077" x2="1093" y2="1082" stroke="#fecaca" stroke-width="2" stroke-opacity="0.5" /><line x1="1103" y1="996" x2="1103" y2="991" stroke="#fecaca" stroke-width="2" stroke-opacity="0.5" /><line x1="1103" y1="1077" x2="1103" y2="1082" stroke="#fecaca" stroke-width="2" stroke-opacity="0.5" /><rect x="750" y="84" width="65" height="81" fill="#fde68a" fill-opacity="0.2" stroke="#fde68a" stroke-opacity="0.8" stroke-width="2" rx="4" /><line x1="755" y1="84" x2="755" y2="79" stroke="#fde68a" stroke-width="2" stroke-opacity="0.5" /><line x1="755" y1="165" x2="755" y2="170" stroke="#fde68a" stroke-width="2" stroke-opacity="0.5" /><line x1="765" y1="84" x2="765" y2="79" stroke="#fde68a" stroke-width="2" stroke-opacity="0.5" /><line x1="765" y1="165" x2="765" y2="170" stroke="#fde68a" stroke-width="2" stroke-opacity="0.5" /><line x1="775" y1="84" x2="775" y2="79" stroke="#fde68a" stroke-width="2" stroke-opacity="0.5" /><line x1="775" y1="165" x2="775" y2="170" stroke="#fde68a" stroke-width="2" stroke-opacity="0.5" /><line x1="785" y1="84" x2="785" y2="79" stroke="#fde68a" stroke-width="2" stroke-opacity="0.5" /><line x1="785" y1="165" x2="785" y2="170" stroke="#fde68a" stroke-width="2" stroke-opacity="0.5" /><line x1="795" y1="84" x2="795" y2="79" stroke="#fde68a" stroke-width="2" stroke-opacity="0.5" /><line x1="795" y1="165" x2="795" y2="170" stroke="#fde68a" stroke-width="2" stroke-opacity="0.5" /><line x1="805" y1="84" x2="805" y2="79" stroke="#fde68a" stroke-width="2" stroke-opacity="0.5" /><line x1="805" y1="165" x2="805" y2="170" stroke="#fde68a" stroke-width="2" stroke-opacity="0.5" /><rect x="840" y="794" width="66" height="42" fill="#ddd6fe" fill-opacity="0.2" stroke="#ddd6fe" stroke-opacity="0.8" stroke-width="2" rx="4" /><line x1="845" y1="794" x2="845" y2="789" stroke="#ddd6fe" stroke-width="2" stroke-opacity="0.5" /><line x1="845" y1="836" x2="845" y2="841" stroke="#ddd6fe" stroke-width="2" stroke-opacity="0.5" /><line x1="855" y1="794" x2="855" y2="789" stroke="#ddd6fe" stroke-width="2" stroke-opacity="0.5" /><line x1="855" y1="836" x2="855" y2="841" stroke="#ddd6fe" stroke-width="2" stroke-opacity="0.5" /><line x1="865" y1="794" x2="865" y2="789" stroke="#ddd6fe" stroke-width="2" stroke-opacity="0.5" /><line x1="865" y1="836" x2="865" y2="841" stroke="#ddd6fe" stroke-width="2" stroke-opacity="0.5" /><line x1="875" y1="794" x2="875" y2="789" stroke="#ddd6fe" stroke-width="2" stroke-opacity="0.5" /><line x1="875" y1="836" x2="875" y2="841" stroke="#ddd6fe" stroke-width="2" stroke-opacity="0.5" /><line x1="885" y1="794" x2="885" y2="789" stroke="#ddd6fe" stroke-width="2" stroke-opacity="0.5" /><line x1="885" y1="836" x2="885" y2="841" stroke="#ddd6fe" stroke-width="2" stroke-opacity="0.5" /><line x1="895" y1="794" x2="895" y2="789" stroke="#ddd6fe" stroke-width="2" stroke-opacity="0.5" /><line x1="895" y1="836" x2="895" y2="841" stroke="#ddd6fe" stroke-width="2" stroke-opacity="0.5" /><line x1="905" y1="794" x2="905" y2="789" stroke="#ddd6fe" stroke-width="2" stroke-opacity="0.5" /><line x1="905" y1="836" x2="905" y2="841" stroke="#ddd6fe" stroke-width="2" stroke-opacity="0.5" /><rect x="1082" y="724" width="91" height="42" fill="#a5f3fc" fill-opacity="0.2" stroke="#a5f3fc" stroke-opacity="0.8" stroke-width="2" rx="4" /><line x1="1087" y1="724" x2="1087" y2="719" stroke="#a5f3fc" stroke-width="2" stroke-opacity="0.5" /><line x1="1087" y1="766" x2="1087" y2="771" stroke="#a5f3fc" stroke-width="2" stroke-opacity="0.5" /><line x1="1097" y1="724" x2="1097" y2="719" stroke="#a5f3fc" stroke-width="2" stroke-opacity="0.5" /><line x1="1097" y1="766" x2="1097" y2="771" stroke="#a5f3fc" stroke-width="2" stroke-opacity="0.5" /><line x1="1107" y1="724" x2="1107" y2="719" stroke="#a5f3fc" stroke-width="2" stroke-opacity="0.5" /><line x1="1107" y1="766" x2="1107" y2="771" stroke="#a5f3fc" stroke-width="2" stroke-opacity="0.5" /><line x1="1117" y1="724" x2="1117" y2="719" stroke="#a5f3fc" stroke-width="2" stroke-opacity="0.5" /><line x1="1117" y1="766" x2="1117" y2="771" stroke="#a5f3fc" stroke-width="2" stroke-opacity="0.5" /><line x1="1127" y1="724" x2="1127" y2="719" stroke="#a5f3fc" stroke-width="2" stroke-opacity="0.5" /><line x1="1127" y1="766" x2="1127" y2="771" stroke="#a5f3fc" stroke-width="2" stroke-opacity="0.5" /><line x1="1137" y1="724" x2="1137" y2="719" stroke="#a5f3fc" stroke-width="2" stroke-opacity="0.5" /><line x1="1137" y1="766" x2="1137" y2="771" stroke="#a5f3fc" stroke-width="2" stroke-opacity="0.5" /><line x1="1147" y1="724" x2="1147" y2="719" stroke="#a5f3fc" stroke-width="2" stroke-opacity="0.5" /><line x1="1147" y1="766" x2="1147" y2="771" stroke="#a5f3fc" stroke-width="2" stroke-opacity="0.5" /><line x1="1157" y1="724" x2="1157" y2="719" stroke="#a5f3fc" stroke-width="2" stroke-opacity="0.5" /><line x1="1157" y1="766" x2="1157" y2="771" stroke="#a5f3fc" stroke-width="2" stroke-opacity="0.5" /><line x1="1167" y1="724" x2="1167" y2="719" stroke="#a5f3fc" stroke-width="2" stroke-opacity="0.5" /><line x1="1167" y1="766" x2="1167" y2="771" stroke="#a5f3fc" stroke-width="2" stroke-opacity="0.5" /><rect x="97" y="784" width="89" height="75" fill="#bae6fd" fill-opacity="0.2" stroke="#bae6fd" stroke-opacity="0.8" stroke-width="2" rx="4" /><line x1="102" y1="784" x2="102" y2="779" stroke="#bae6fd" stroke-width="2" stroke-opacity="0.5" /><line x1="102" y1="859" x2="102" y2="864" stroke="#bae6fd" stroke-width="2" stroke-opacity="0.5" /><line x1="112" y1="784" x2="112" y2="779" stroke="#bae6fd" stroke-width="2" stroke-opacity="0.5" /><line x1="112" y1="859" x2="112" y2="864" stroke="#bae6fd" stroke-width="2" stroke-opacity="0.5" /><line x1="122" y1="784" x2="122" y2="779" stroke="#bae6fd" stroke-width="2" stroke-opacity="0.5" /><line x1="122" y1="859" x2="122" y2="864" stroke="#bae6fd" stroke-width="2" stroke-opacity="0.5" /><line x1="132" y1="784" x2="132" y2="779" stroke="#bae6fd" stroke-width="2" stroke-opacity="0.5" /><line x1="132" y1="859" x2="132" y2="864" stroke="#bae6fd" stroke-width="2" stroke-opacity="0.5" /><line x1="142" y1="784" x2="142" y2="779" stroke="#bae6fd" stroke-width="2" stroke-opacity="0.5" /><line x1="142" y1="859" x2="142" y2="864" stroke="#bae6fd" stroke-width="2" stroke-opacity="0.5" /><line x1="152" y1="784" x2="152" y2="779" stroke="#bae6fd" stroke-width="2" stroke-opacity="0.5" /><line x1="152" y1="859" x2="152" y2="864" stroke="#bae6fd" stroke-width="2" stroke-opacity="0.5" /><line x1="162" y1="784" x2="162" y2="779" stroke="#bae6fd" stroke-width="2" stroke-opacity="0.5" /><line x1="162" y1="859" x2="162" y2="864" stroke="#bae6fd" stroke-width="2" stroke-opacity="0.5" /><line x1="172" y1="784" x2="172" y2="779" stroke="#bae6fd" stroke-width="2" stroke-opacity="0.5" /><line x1="172" y1="859" x2="172" y2="864" stroke="#bae6fd" stroke-width="2" stroke-opacity="0.5" /><line x1="182" y1="784" x2="182" y2="779" stroke="#bae6fd" stroke-width="2" stroke-opacity="0.5" /><line x1="182" y1="859" x2="182" y2="864" stroke="#bae6fd" stroke-width="2" stroke-opacity="0.5" /><circle cx="1400" cy="-39" r="3" fill="#fde68a" fill-opacity="0.4" /><path d="M 1289 26 L 1320 26 L 1320 78 L 1400 78 L 1400 0 L 1400 -39 L 1437 -39" stroke="#fde68a" stroke-width="2" fill="none" stroke-opacity="0.4" stroke-linecap="round" stroke-linejoin="round" /><circle cx="1437" cy="-39" r="4" fill="#fde68a" fill-opacity="0.6" /><circle cx="436" cy="992" r="3" fill="#fde68a" fill-opacity="0.4" /><circle cx="400" cy="1073" r="3" fill="#fde68a" fill-opacity="0.4" /><circle cx="527" cy="1099" r="3" fill="#fde68a" fill-opacity="0.4" /><path d="M 265 992 L 243 992 L 313 992 L 334 992 L 356 992 L 436 992 L 400 992 L 400 1016 L 400 1073 L 400 1099 L 467 1099 L 527 1099" stroke="#fde68a" stroke-width="2" fill="none" stroke-opacity="0.4" stroke-linecap="round" stroke-linejoin="round" /><circle cx="527" cy="1099" r="4" fill="#fde68a" fill-opacity="0.6" /><path d="M 97 486 L 97 555 L 120 555 L 120 625 L 79 625" stroke="#bae6fd" stroke-width="2" fill="none" stroke-opacity="0.4" stroke-linecap="round" stroke-linejoin="round" /><circle cx="79" cy="625" r="4" fill="#bae6fd" fill-opacity="0.6" /><circle cx="1026" cy="327" r="3" fill="#fde68a" fill-opacity="0.4" /><circle cx="1026" cy="297" r="3" fill="#fde68a" fill-opacity="0.4" /><circle cx="989" cy="337" r="3" fill="#fde68a" fill-opacity="0.4" /><circle cx="989" cy="369" r="3" fill="#fde68a" fill-opacity="0.4" /><path d="M 1023 420 L 977 420 L 977 366 L 977 405 L 1026 405 L 1026 327 L 1026 297 L 1061 297 L 1028 297 L 989 297 L 989 337 L 989 369" stroke="#fde68a" stroke-width="2" fill="none" stroke-opacity="0.4" stroke-linecap="round" stroke-linejoin="round" /><circle cx="989" cy="369" r="4" fill="#fde68a" fill-opacity="0.6" /><circle cx="465" cy="1029" r="3" fill="#fecaca" fill-opacity="0.4" /><circle cx="525" cy="1029" r="3" fill="#fecaca" fill-opacity="0.4" /><circle cx="525" cy="959" r="3" fill="#fecaca" fill-opacity="0.4" /><circle cx="472" cy="959" r="3" fill="#fecaca" fill-opacity="0.4" /><circle cx="451" cy="892" r="3" fill="#fecaca" fill-opacity="0.4" /><path d="M 465 1058 L 465 1029 L 497 1029 L 525 1029 L 525 959 L 498 959 L 472 959 L 472 892 L 451 892 L 451 919 L 451 979 L 479 979" stroke="#fecaca" stroke-width="2" fill="none" stroke-opacity="0.4" stroke-linecap="round" stroke-linejoin="round" /><circle cx="479" cy="979" r="4" fill="#fecaca" fill-opacity="0.6" /><circle cx="1175" cy="395" r="3" fill="#bae6fd" fill-opacity="0.4" /><circle cx="1175" cy="334" r="3" fill="#bae6fd" fill-opacity="0.4" /><path d="M 1213 436 L 1175 436 L 1175 395 L 1175 334 L 1175 280 L 1175 324 L 1228 324 L 1205 324" stroke="#bae6fd" stroke-width="2" fill="none" stroke-opacity="0.4" stroke-linecap="round" stroke-linejoin="round" /><circle cx="1205" cy="324" r="4" fill="#bae6fd" fill-opacity="0.6" /><circle cx="1868" cy="62" r="1.5" fill="#fde68a" fill-opacity="0.4" /><circle cx="1928" cy="34" r="1.5" fill="#fde68a" fill-opacity="0.4" /><circle cx="1974" cy="97" r="1.5" fill="#fde68a" fill-opacity="0.4" /><circle cx="1949" cy="-2" r="1.5" fill="#fde68a" fill-opacity="0.4" /><path d="M 1868 28 L 1868 62 L 1868 34 L 1928 34 L 1974 34 L 1974 97 L 1949 97 L 1949 19 L 1949 -2" stroke="#fde68a" stroke-width="1" fill="none" stroke-opacity="0.4" stroke-linecap="round" stroke-linejoin="round" /><circle cx="1949" cy="-2" r="2" fill="#fde68a" fill-opacity="0.6" /><circle cx="231" cy="992" r="1.5" fill="#ddd6fe" fill-opacity="0.4" /><circle cx="231" cy="1027" r="1.5" fill="#ddd6fe" fill-opacity="0.4" /><circle cx="107" cy="1067" r="1.5" fill="#ddd6fe" fill-opacity="0.4" /><path d="M 257 992 L 231 992 L 231 1046 L 231 1075 L 231 1027 L 200 1027 L 278 1027 L 205 1027 L 136 1027 L 107 1027 L 107 1067" stroke="#ddd6fe" stroke-width="1" fill="none" stroke-opacity="0.4" stroke-linecap="round" stroke-linejoin="round" /><circle cx="107" cy="1067" r="2" fill="#ddd6fe" fill-opacity="0.6" /><path d="M 1656 339 L 1656 404 L 1723 404 L 1723 348 L 1723 275 L 1668 275" stroke="#fecaca" stroke-width="3" fill="none" stroke-opacity="0.4" stroke-linecap="round" stroke-linejoin="round" /><circle cx="1668" cy="275" r="6" fill="#fecaca" fill-opacity="0.6" /><circle cx="1643" cy="302" r="3" fill="#a5f3fc" fill-opacity="0.4" /><circle cx="1717" cy="201" r="3" fill="#a5f3fc" fill-opacity="0.4" /><circle cx="1784" cy="201" r="3" fill="#a5f3fc" fill-opacity="0.4" /><path d="M 1692 302 L 1643 302 L 1643 346 L 1643 281 L 1643 201 L 1717 201 L 1784 201 L 1784 277" stroke="#a5f3fc" stroke-width="2" fill="none" stroke-opacity="0.4" stroke-linecap="round" stroke-linejoin="round" /><circle cx="1784" cy="277" r="4" fill="#a5f3fc" fill-opacity="0.6" /><circle cx="1203" cy="874" r="1.5" fill="#fecaca" fill-opacity="0.4" /><circle cx="1203" cy="937" r="1.5" fill="#fecaca" fill-opacity="0.4" /><circle cx="1203" cy="956" r="1.5" fill="#fecaca" fill-opacity="0.4" /><path d="M 1176 918 L 1176 874 L 1203 874 L 1203 937 L 1203 1011 L 1203 956 L 1148 956 L 1148 986 L 1148 1043 L 1148 1013 L 1148 1084" stroke="#fecaca" stroke-width="1" fill="none" stroke-opacity="0.4" stroke-linecap="round" stroke-linejoin="round" /><circle cx="1148" cy="1084" r="2" fill="#fecaca" fill-opacity="0.6" /><circle cx="1294" cy="78" r="1.5" fill="#a5f3fc" fill-opacity="0.4" /><circle cx="1261" cy="78" r="1.5" fill="#a5f3fc" fill-opacity="0.4" /><path d="M 1374 64 L 1374 117 L 1374 78 L 1294 78 L 1261 78 L 1261 48 L 1336 48" stroke="#a5f3fc" stroke-width="1" fill="none" stroke-opacity="0.4" stroke-linecap="round" stroke-linejoin="round" /><circle cx="1336" cy="48" r="2" fill="#a5f3fc" fill-opacity="0.6" /><circle cx="1112" cy="169" r="4.5" fill="#fde68a" fill-opacity="0.4" /><circle cx="1153" cy="30" r="4.5" fill="#fde68a" fill-opacity="0.4" /><path d="M 1167 169 L 1112 169 L 1112 120 L 1153 120 L 1153 94 L 1153 30 L 1222 30 L 1222 92 L 1184 92 L 1157 92 L 1092 92" stroke="#fde68a" stroke-width="3" fill="none" stroke-opacity="0.4" stroke-linecap="round" stroke-linejoin="round" /><circle cx="1092" cy="92" r="6" fill="#fde68a" fill-opacity="0.6" /><circle cx="835" cy="844" r="1.5" fill="#a5f3fc" fill-opacity="0.4" /><circle cx="827" cy="844" r="1.5" fill="#a5f3fc" fill-opacity="0.4" /><path d="M 835 904 L 835 844 L 906 844 L 827 844 L 762 844 L 723 844 L 662 844 L 735 844 L 695 844" stroke="#a5f3fc" stroke-width="1" fill="none" stroke-opacity="0.4" stroke-linecap="round" stroke-linejoin="round" /><circle cx="695" cy="844" r="2" fill="#a5f3fc" fill-opacity="0.6" /><circle cx="969" cy="792" r="4.5" fill="#a5f3fc" fill-opacity="0.4" /><circle cx="831" cy="792" r="4.5" fill="#a5f3fc" fill-opacity="0.4" /><circle cx="775" cy="792" r="4.5" fill="#a5f3fc" fill-opacity="0.4" /><path d="M 969 731 L 969 792 L 893 792 L 831 792 L 775 792 L 745 792 L 745 753 L 724 753 L 724 721" stroke="#a5f3fc" stroke-width="3" fill="none" stroke-opacity="0.4" stroke-linecap="round" stroke-linejoin="round" /><circle cx="724" cy="721" r="6" fill="#a5f3fc" fill-opacity="0.6" /><circle cx="1814" cy="706" r="4.5" fill="#a5f3fc" fill-opacity="0.4" /><path d="M 1682 681 L 1734 681 L 1767 681 L 1767 706 L 1814 706 L 1757 706 L 1757 743 L 1757 781 L 1688 781 L 1688 746" stroke="#a5f3fc" stroke-width="3" fill="none" stroke-opacity="0.4" stroke-linecap="round" stroke-linejoin="round" /><circle cx="1688" cy="746" r="6" fill="#a5f3fc" fill-opacity="0.6" /><circle cx="676" cy="1018" r="4.5" fill="#bae6fd" fill-opacity="0.4" /><circle cx="618" cy="1018" r="4.5" fill="#bae6fd" fill-opacity="0.4" /><path d="M 676 954 L 676 1018 L 618 1018 L 618 938" stroke="#bae6fd" stroke-width="3" fill="none" stroke-opacity="0.4" stroke-linecap="round" stroke-linejoin="round" /><circle cx="618" cy="938" r="6" fill="#bae6fd" fill-opacity="0.6" /><circle cx="1601" cy="1080" r="3" fill="#a5f3fc" fill-opacity="0.4" /><path d="M 1757 1019 L 1757 1080 L 1683 1080 L 1615 1080 L 1559 1080 L 1601 1080 L 1601 1008 L 1601 1064 L 1637 1064 L 1637 1017" stroke="#a5f3fc" stroke-width="2" fill="none" stroke-opacity="0.4" stroke-linecap="round" stroke-linejoin="round" /><circle cx="1637" cy="1017" r="4" fill="#a5f3fc" fill-opacity="0.6" /><circle cx="916" cy="-3" r="4.5" fill="#bae6fd" fill-opacity="0.4" /><circle cx="916" cy="45" r="4.5" fill="#bae6fd" fill-opacity="0.4" /><circle cx="916" cy="124" r="4.5" fill="#bae6fd" fill-opacity="0.4" /><path d="M 916 20 L 916 -3 L 916 45 L 916 124 L 940 124 L 940 170" stroke="#bae6fd" stroke-width="3" fill="none" stroke-opacity="0.4" stroke-linecap="round" stroke-linejoin="round" /><circle cx="940" cy="170" r="6" fill="#bae6fd" fill-opacity="0.6" /><circle cx="92" cy="641" r="1.5" fill="#bae6fd" fill-opacity="0.4" /><path d="M 92 698 L 92 641 L 145 641 L 145 589 L 145 668" stroke="#bae6fd" stroke-width="1" fill="none" stroke-opacity="0.4" stroke-linecap="round" stroke-linejoin="round" /><circle cx="145" cy="668" r="2" fill="#bae6fd" fill-opacity="0.6" /><circle cx="658" cy="518" r="1.5" fill="#a5f3fc" fill-opacity="0.4" /><path d="M 624 481 L 658 481 L 658 518 L 658 490 L 658 567" stroke="#a5f3fc" stroke-width="1" fill="none" stroke-opacity="0.4" stroke-linecap="round" stroke-linejoin="round" /><circle cx="658" cy="567" r="2" fill="#a5f3fc" fill-opacity="0.6" /><circle cx="847" cy="776" r="3" fill="#fde68a" fill-opacity="0.4" /><circle cx="800" cy="776" r="3" fill="#fde68a" fill-opacity="0.4" /><circle cx="955" cy="888" r="3" fill="#fde68a" fill-opacity="0.4" /><path d="M 847 747 L 847 776 L 800 776 L 800 852 L 854 852 L 903 852 L 964 852 L 964 888 L 1010 888 L 955 888" stroke="#fde68a" stroke-width="2" fill="none" stroke-opacity="0.4" stroke-linecap="round" stroke-linejoin="round" /><circle cx="955" cy="888" r="4" fill="#fde68a" fill-opacity="0.6" /><circle cx="1466" cy="15" r="4.5" fill="#bae6fd" fill-opacity="0.4" /><circle cx="1466" cy="59" r="4.5" fill="#bae6fd" fill-opacity="0.4" /><path d="M 1420 43 L 1491 43 L 1491 -13 L 1466 -13 L 1466 -40 L 1466 15 L 1466 59 L 1543 59" stroke="#bae6fd" stroke-width="3" fill="none" stroke-opacity="0.4" stroke-linecap="round" stroke-linejoin="round" /><circle cx="1543" cy="59" r="6" fill="#bae6fd" fill-opacity="0.6" /><circle cx="204" cy="555" r="4.5" fill="#bae6fd" fill-opacity="0.4" /><circle cx="254" cy="555" r="4.5" fill="#bae6fd" fill-opacity="0.4" /><path d="M 82 555 L 153 555 L 204 555 L 284 555 L 320 555 L 254 555 L 289 555 L 289 517 L 289 562" stroke="#bae6fd" stroke-width="3" fill="none" stroke-opacity="0.4" stroke-linecap="round" stroke-linejoin="round" /><circle cx="289" cy="562" r="6" fill="#bae6fd" fill-opacity="0.6" /><circle cx="1612" cy="114" r="1.5" fill="#bae6fd" fill-opacity="0.4" /><circle cx="1612" cy="170" r="1.5" fill="#bae6fd" fill-opacity="0.4" /><circle cx="1612" cy="142" r="1.5" fill="#bae6fd" fill-opacity="0.4" /><path d="M 1612 165 L 1612 114 L 1612 170 L 1612 211 L 1612 142 L 1612 180 L 1612 215 L 1552 215" stroke="#bae6fd" stroke-width="1" fill="none" stroke-opacity="0.4" stroke-linecap="round" stroke-linejoin="round" /><circle cx="1552" cy="215" r="2" fill="#bae6fd" fill-opacity="0.6" /><circle cx="1720" cy="805" r="3" fill="#ddd6fe" fill-opacity="0.4" /><path d="M 1641 750 L 1641 805 L 1720 805" stroke="#ddd6fe" stroke-width="2" fill="none" stroke-opacity="0.4" stroke-linecap="round" stroke-linejoin="round" /><circle cx="1720" cy="805" r="4" fill="#ddd6fe" fill-opacity="0.6" /><circle cx="968" cy="557" r="4.5" fill="#ddd6fe" fill-opacity="0.4" /><path d="M 931 567 L 908 567 L 908 631 L 968 631 L 968 557" stroke="#ddd6fe" stroke-width="3" fill="none" stroke-opacity="0.4" stroke-linecap="round" stroke-linejoin="round" /><circle cx="968" cy="557" r="6" fill="#ddd6fe" fill-opacity="0.6" /><circle cx="107" cy="648" r="4.5" fill="#bae6fd" fill-opacity="0.4" /><path d="M 67 549 L 67 618 L 107 618 L 107 648 L 107 624 L 53 624 L 123 624" stroke="#bae6fd" stroke-width="3" fill="none" stroke-opacity="0.4" stroke-linecap="round" stroke-linejoin="round" /><circle cx="123" cy="624" r="6" fill="#bae6fd" fill-opacity="0.6" /><circle cx="562" cy="467" r="3" fill="#bae6fd" fill-opacity="0.4" /><path d="M 562 387 L 562 467 L 521 467 L 521 432 L 587 432 L 587 512 L 587 477 L 610 477 L 550 477" stroke="#bae6fd" stroke-width="2" fill="none" stroke-opacity="0.4" stroke-linecap="round" stroke-linejoin="round" /><circle cx="550" cy="477" r="4" fill="#bae6fd" fill-opacity="0.6" /><circle cx="1582" cy="150" r="3" fill="#ddd6fe" fill-opacity="0.4" /><path d="M 1542 196 L 1582 196 L 1582 123 L 1582 150 L 1582 224 L 1582 167" stroke="#ddd6fe" stroke-width="2" fill="none" stroke-opacity="0.4" stroke-linecap="round" stroke-linejoin="round" /><circle cx="1582" cy="167" r="4" fill="#ddd6fe" fill-opacity="0.6" /><circle cx="257" cy="360" r="3" fill="#bae6fd" fill-opacity="0.4" /><circle cx="168" cy="487" r="3" fill="#bae6fd" fill-opacity="0.4" /><path d="M 357 324 L 294 324 L 257 324 L 257 360 L 237 360 L 237 430 L 237 487 L 168 487 L 168 436 L 168 471" stroke="#bae6fd" stroke-width="2" fill="none" stroke-opacity="0.4" stroke-linecap="round" stroke-linejoin="round" /><circle cx="168" cy="471" r="4" fill="#bae6fd" fill-opacity="0.6" /><circle cx="50" cy="87" r="4.5" fill="#fde68a" fill-opacity="0.4" /><circle cx="97" cy="59" r="4.5" fill="#fde68a" fill-opacity="0.4" /><circle cx="97" cy="-1" r="4.5" fill="#fde68a" fill-opacity="0.4" /><path d="M 50 146 L 50 192 L 50 164 L 50 87 L 50 59 L 99 59 L 51 59 L 127 59 L 97 59 L 97 -1 L 170 -1" stroke="#fde68a" stroke-width="3" fill="none" stroke-opacity="0.4" stroke-linecap="round" stroke-linejoin="round" /><circle cx="170" cy="-1" r="6" fill="#fde68a" fill-opacity="0.6" /><circle cx="2007" cy="767" r="4.5" fill="#fecaca" fill-opacity="0.4" /><path d="M 1898 734 L 1934 734 L 1934 781 L 1934 748 L 2007 748 L 2007 785 L 2007 835 L 2007 767 L 2007 695" stroke="#fecaca" stroke-width="3" fill="none" stroke-opacity="0.4" stroke-linecap="round" stroke-linejoin="round" /><circle cx="2007" cy="695" r="6" fill="#fecaca" fill-opacity="0.6" /><circle cx="728" cy="-20" r="4.5" fill="#fecaca" fill-opacity="0.4" /><path d="M 596 4 L 547 4 L 624 4 L 624 -66 L 624 -144 L 624 -97 L 669 -97 L 669 -20 L 728 -20" stroke="#fecaca" stroke-width="3" fill="none" stroke-opacity="0.4" stroke-linecap="round" stroke-linejoin="round" /><circle cx="728" cy="-20" r="6" fill="#fecaca" fill-opacity="0.6" /><circle cx="1714" cy="1051" r="3" fill="#a5f3fc" fill-opacity="0.4" /><path d="M 1744 1031 L 1744 1006 L 1710 1006 L 1647 1006 L 1714 1006 L 1714 1051 L 1714 1008 L 1714 945 L 1714 919 L 1634 919" stroke="#a5f3fc" stroke-width="2" fill="none" stroke-opacity="0.4" stroke-linecap="round" stroke-linejoin="round" /><circle cx="1634" cy="919" r="4" fill="#a5f3fc" fill-opacity="0.6" /><circle cx="1033" cy="595" r="3" fill="#bae6fd" fill-opacity="0.4" /><path d="M 1087 590 L 1053 590 L 1033 590 L 1033 667 L 1033 595" stroke="#bae6fd" stroke-width="2" fill="none" stroke-opacity="0.4" stroke-linecap="round" stroke-linejoin="round" /><circle cx="1033" cy="595" r="4" fill="#bae6fd" fill-opacity="0.6" /><circle cx="687" cy="914" r="3" fill="#ddd6fe" fill-opacity="0.4" /><path d="M 725 864 L 725 833 L 661 833 L 661 799 L 661 864 L 687 864 L 687 914" stroke="#ddd6fe" stroke-width="2" fill="none" stroke-opacity="0.4" stroke-linecap="round" stroke-linejoin="round" /><circle cx="687" cy="914" r="4" fill="#ddd6fe" fill-opacity="0.6" /><circle cx="1841" cy="850" r="3" fill="#a5f3fc" fill-opacity="0.4" /><circle cx="1807" cy="792" r="3" fill="#a5f3fc" fill-opacity="0.4" /><circle cx="1820" cy="792" r="3" fill="#a5f3fc" fill-opacity="0.4" /><path d="M 1841 823 L 1841 850 L 1841 792 L 1807 792 L 1856 792 L 1820 792 L 1893 792" stroke="#a5f3fc" stroke-width="2" fill="none" stroke-opacity="0.4" stroke-linecap="round" stroke-linejoin="round" /><circle cx="1893" cy="792" r="4" fill="#a5f3fc" fill-opacity="0.6" /><path d="M 733 974 L 733 936 L 733 897 L 733 938" stroke="#bae6fd" stroke-width="2" fill="none" stroke-opacity="0.4" stroke-linecap="round" stroke-linejoin="round" /><circle cx="733" cy="938" r="4" fill="#bae6fd" fill-opacity="0.6" /><circle cx="176" cy="379" r="4.5" fill="#a5f3fc" fill-opacity="0.4" /><path d="M 68 379 L 105 379 L 143 379 L 176 379 L 197 379" stroke="#a5f3fc" stroke-width="3" fill="none" stroke-opacity="0.4" stroke-linecap="round" stroke-linejoin="round" /><circle cx="197" cy="379" r="6" fill="#a5f3fc" fill-opacity="0.6" /><circle cx="599" cy="418" r="1.5" fill="#ddd6fe" fill-opacity="0.4" /><path d="M 500 418 L 557 418 L 604 418 L 667 418 L 599 418 L 599 342" stroke="#ddd6fe" stroke-width="1" fill="none" stroke-opacity="0.4" stroke-linecap="round" stroke-linejoin="round" /><circle cx="599" cy="342" r="2" fill="#ddd6fe" fill-opacity="0.6" /><path d="M 987 681 L 962 681 L 962 758 L 962 699" stroke="#a5f3fc" stroke-width="1" fill="none" stroke-opacity="0.4" stroke-linecap="round" stroke-linejoin="round" /><circle cx="962" cy="699" r="2" fill="#a5f3fc" fill-opacity="0.6" /><circle cx="706" cy="453" r="4.5" fill="#fecaca" fill-opacity="0.4" /><circle cx="739" cy="406" r="4.5" fill="#fecaca" fill-opacity="0.4" /><circle cx="676" cy="406" r="4.5" fill="#fecaca" fill-opacity="0.4" /><circle cx="676" cy="483" r="4.5" fill="#fecaca" fill-opacity="0.4" /><path d="M 668 453 L 706 453 L 739 453 L 739 406 L 676 406 L 676 483" stroke="#fecaca" stroke-width="3" fill="none" stroke-opacity="0.4" stroke-linecap="round" stroke-linejoin="round" /><circle cx="676" cy="483" r="6" fill="#fecaca" fill-opacity="0.6" /><path d="M 668 876 L 668 931 L 668 952 L 668 1025 L 622 1025" stroke="#fecaca" stroke-width="1" fill="none" stroke-opacity="0.4" stroke-linecap="round" stroke-linejoin="round" /><circle cx="622" cy="1025" r="2" fill="#fecaca" fill-opacity="0.6" /><circle cx="248" cy="100" r="4.5" fill="#a5f3fc" fill-opacity="0.4" /><path d="M 226 223 L 290 223 L 248 223 L 248 145 L 248 179 L 248 100" stroke="#a5f3fc" stroke-width="3" fill="none" stroke-opacity="0.4" stroke-linecap="round" stroke-linejoin="round" /><circle cx="248" cy="100" r="6" fill="#a5f3fc" fill-opacity="0.6" /><circle cx="494" cy="785" r="1.5" fill="#ddd6fe" fill-opacity="0.4" /><circle cx="464" cy="897" r="1.5" fill="#ddd6fe" fill-opacity="0.4" /><path d="M 466 785 L 494 785 L 494 825 L 494 897 L 452 897 L 423 897 L 464 897 L 532 897 L 532 835" stroke="#ddd6fe" stroke-width="1" fill="none" stroke-opacity="0.4" stroke-linecap="round" stroke-linejoin="round" /><circle cx="532" cy="835" r="2" fill="#ddd6fe" fill-opacity="0.6" /><circle cx="641" cy="47" r="1.5" fill="#fecaca" fill-opacity="0.4" /><circle cx="680" cy="47" r="1.5" fill="#fecaca" fill-opacity="0.4" /><circle cx="680" cy="19" r="1.5" fill="#fecaca" fill-opacity="0.4" /><path d="M 728 22 L 728 47 L 654 47 L 613 47 L 641 47 L 680 47 L 680 19 L 750 19" stroke="#fecaca" stroke-width="1" fill="none" stroke-opacity="0.4" stroke-linecap="round" stroke-linejoin="round" /><circle cx="750" cy="19" r="2" fill="#fecaca" fill-opacity="0.6" /><path d="M 1864 756 L 1894 756 L 1894 779 L 1894 707 L 1930 707 L 2004 707" stroke="#fecaca" stroke-width="2" fill="none" stroke-opacity="0.4" stroke-linecap="round" stroke-linejoin="round" /><circle cx="2004" cy="707" r="4" fill="#fecaca" fill-opacity="0.6" /><path d="M 1422 1040 L 1476 1040 L 1451 1040 L 1379 1040 L 1379 1104 L 1333 1104" stroke="#fde68a" stroke-width="1" fill="none" stroke-opacity="0.4" stroke-linecap="round" stroke-linejoin="round" /><circle cx="1333" cy="1104" r="2" fill="#fde68a" fill-opacity="0.6" /><circle cx="1029" cy="965" r="1.5" fill="#a5f3fc" fill-opacity="0.4" /><circle cx="1029" cy="933" r="1.5" fill="#a5f3fc" fill-opacity="0.4" /><circle cx="1087" cy="815" r="1.5" fill="#a5f3fc" fill-opacity="0.4" /><path d="M 1024 893 L 1024 965 L 1065 965 L 1029 965 L 1029 933 L 1029 886 L 1087 886 L 1087 815 L 1011 815" stroke="#a5f3fc" stroke-width="1" fill="none" stroke-opacity="0.4" stroke-linecap="round" stroke-linejoin="round" /><circle cx="1011" cy="815" r="2" fill="#a5f3fc" fill-opacity="0.6" /><circle cx="1000" cy="575" r="1.5" fill="#bae6fd" fill-opacity="0.4" /><circle cx="1038" cy="599" r="1.5" fill="#bae6fd" fill-opacity="0.4" /><circle cx="1038" cy="631" r="1.5" fill="#bae6fd" fill-opacity="0.4" /><circle cx="1086" cy="631" r="1.5" fill="#bae6fd" fill-opacity="0.4" /><circle cx="1052" cy="631" r="1.5" fill="#bae6fd" fill-opacity="0.4" /><circle cx="1000" cy="631" r="1.5" fill="#bae6fd" fill-opacity="0.4" /><path d="M 950 575 L 1000 575 L 1038 575 L 1038 599 L 1038 631 L 1086 631 L 1052 631 L 1000 631" stroke="#bae6fd" stroke-width="1" fill="none" stroke-opacity="0.4" stroke-linecap="round" stroke-linejoin="round" /><circle cx="1000" cy="631" r="2" fill="#bae6fd" fill-opacity="0.6" /><circle cx="1260" cy="600" r="4.5" fill="#fecaca" fill-opacity="0.4" /><path d="M 1271 553 L 1292 553 L 1226 553 L 1226 633 L 1263 633 L 1263 656 L 1228 656 L 1281 656 L 1238 656 L 1260 656 L 1260 600" stroke="#fecaca" stroke-width="3" fill="none" stroke-opacity="0.4" stroke-linecap="round" stroke-linejoin="round" /><circle cx="1260" cy="600" r="6" fill="#fecaca" fill-opacity="0.6" /><path d="M 382 985 L 316 985 L 316 928 L 284 928" stroke="#ddd6fe" stroke-width="2" fill="none" stroke-opacity="0.4" stroke-linecap="round" stroke-linejoin="round" /><circle cx="284" cy="928" r="4" fill="#ddd6fe" fill-opacity="0.6" /><circle cx="124" cy="1104" r="4.5" fill="#ddd6fe" fill-opacity="0.4" /><path d="M 134 1024 L 200 1024 L 200 1070 L 200 1104 L 179 1104 L 124 1104" stroke="#ddd6fe" stroke-width="3" fill="none" stroke-opacity="0.4" stroke-linecap="round" stroke-linejoin="round" /><circle cx="124" cy="1104" r="6" fill="#ddd6fe" fill-opacity="0.6" /><circle cx="287" cy="194" r="3" fill="#ddd6fe" fill-opacity="0.4" /><circle cx="230" cy="194" r="3" fill="#ddd6fe" fill-opacity="0.4" /><circle cx="250" cy="194" r="3" fill="#ddd6fe" fill-opacity="0.4" /><circle cx="216" cy="135" r="3" fill="#ddd6fe" fill-opacity="0.4" /><circle cx="216" cy="193" r="3" fill="#ddd6fe" fill-opacity="0.4" /><path d="M 332 194 L 287 194 L 230 194 L 250 194 L 216 194 L 216 135 L 216 193 L 216 266" stroke="#ddd6fe" stroke-width="2" fill="none" stroke-opacity="0.4" stroke-linecap="round" stroke-linejoin="round" /><circle cx="216" cy="266" r="4" fill="#ddd6fe" fill-opacity="0.6" /><circle cx="1424" cy="413" r="1.5" fill="#bae6fd" fill-opacity="0.4" /><circle cx="1462" cy="413" r="1.5" fill="#bae6fd" fill-opacity="0.4" /><circle cx="1462" cy="379" r="1.5" fill="#bae6fd" fill-opacity="0.4" /><circle cx="1398" cy="379" r="1.5" fill="#bae6fd" fill-opacity="0.4" /><circle cx="1478" cy="379" r="1.5" fill="#bae6fd" fill-opacity="0.4" /><circle cx="1478" cy="269" r="1.5" fill="#bae6fd" fill-opacity="0.4" /><path d="M 1454 413 L 1424 413 L 1462 413 L 1462 379 L 1398 379 L 1478 379 L 1478 406 L 1478 345 L 1478 269" stroke="#bae6fd" stroke-width="1" fill="none" stroke-opacity="0.4" stroke-linecap="round" stroke-linejoin="round" /><circle cx="1478" cy="269" r="2" fill="#bae6fd" fill-opacity="0.6" /><circle cx="1383" cy="932" r="3" fill="#fde68a" fill-opacity="0.4" /><circle cx="1383" cy="976" r="3" fill="#fde68a" fill-opacity="0.4" /><path d="M 1334 903 L 1383 903 L 1383 932 L 1383 976 L 1383 937 L 1363 937" stroke="#fde68a" stroke-width="2" fill="none" stroke-opacity="0.4" stroke-linecap="round" stroke-linejoin="round" /><circle cx="1363" cy="937" r="4" fill="#fde68a" fill-opacity="0.6" /><circle cx="1214" cy="776" r="1.5" fill="#ddd6fe" fill-opacity="0.4" /><path d="M 1271 776 L 1214 776 L 1182 776 L 1211 776 L 1249 776 L 1180 776 L 1112 776 L 1060 776 L 1060 849 L 1138 849" stroke="#ddd6fe" stroke-width="1" fill="none" stroke-opacity="0.4" stroke-linecap="round" stroke-linejoin="round" /><circle cx="1138" cy="849" r="2" fill="#ddd6fe" fill-opacity="0.6" /><circle cx="1343" cy="513" r="3" fill="#fde68a" fill-opacity="0.4" /><circle cx="1343" cy="593" r="3" fill="#fde68a" fill-opacity="0.4" /><path d="M 1369 513 L 1343 513 L 1343 559 L 1343 593 L 1308 593 L 1243 593 L 1319 593" stroke="#fde68a" stroke-width="2" fill="none" stroke-opacity="0.4" stroke-linecap="round" stroke-linejoin="round" /><circle cx="1319" cy="593" r="4" fill="#fde68a" fill-opacity="0.6" /><circle cx="1198" cy="976" r="4.5" fill="#a5f3fc" fill-opacity="0.4" /><circle cx="1239" cy="934" r="4.5" fill="#a5f3fc" fill-opacity="0.4" /><path d="M 1222 976 L 1243 976 L 1180 976 L 1219 976 L 1198 976 L 1177 976 L 1239 976 L 1239 934 L 1239 968 L 1239 1035" stroke="#a5f3fc" stroke-width="3" fill="none" stroke-opacity="0.4" stroke-linecap="round" stroke-linejoin="round" /><circle cx="1239" cy="1035" r="6" fill="#a5f3fc" fill-opacity="0.6" /></svg>