<svg xmlns="http://www.w3.org/2000/svg" viewBox="0 0 1920 1080" opacity="0.6">
    <defs>
        <filter id="glow" x="-20%" y="-20%" width="140%" height="140%">
            <feGaussianBlur stdDeviation="3" result="blur" />
            <feComposite in="SourceGraphic" in2="blur" operator="over" />
        </filter>
    </defs>
    <rect width="100%" height="100%" fill="#ffffff"/>
<rect x="897" y="671" width="95" height="97" fill="#fecaca" fill-opacity="0.2" stroke="#fecaca" stroke-opacity="0.8" stroke-width="2" rx="4" /><line x1="902" y1="671" x2="902" y2="666" stroke="#fecaca" stroke-width="2" stroke-opacity="0.5" /><line x1="902" y1="768" x2="902" y2="773" stroke="#fecaca" stroke-width="2" stroke-opacity="0.5" /><line x1="912" y1="671" x2="912" y2="666" stroke="#fecaca" stroke-width="2" stroke-opacity="0.5" /><line x1="912" y1="768" x2="912" y2="773" stroke="#fecaca" stroke-width="2" stroke-opacity="0.5" /><line x1="922" y1="671" x2="922" y2="666" stroke="#fecaca" stroke-width="2" stroke-opacity="0.5" /><line x1="922" y1="768" x2="922" y2="773" stroke="#fecaca" stroke-width="2" stroke-opacity="0.5" /><line x1="932" y1="671" x2="932" y2="666" stroke="#fecaca" stroke-width="2" stroke-opacity="0.5" /><line x1="932" y1="768" x2="932" y2="773" stroke="#fecaca" stroke-width="2" stroke-opacity="0.5" /><line x1="942" y1="671" x2="942" y2="666" stroke="#fecaca" stroke-width="2" stroke-opacity="0.5" /><line x1="942" y1="768" x2="942" y2="773" stroke="#fecaca" stroke-width="2" stroke-opacity="0.5" /><line x1="952" y1="671" x2="952" y2="666" stroke="#fecaca" stroke-width="2" stroke-opacity="0.5" /><line x1="952" y1="768" x2="952" y2="773" stroke="#fecaca" stroke-width="2" stroke-opacity="0.5" /><line x1="962" y1="671" x2="962" y2="666" stroke="#fecaca" stroke-width="2" stroke-opacity="0.5" /><line x1="962" y1="768" x2="962" y2="773" stroke="#fecaca" stroke-width="2" stroke-opacity="0.5" /><line x1="972" y1="671" x2="972" y2="666" stroke="#fecaca" stroke-width="2" stroke-opacity="0.5" /><line x1="972" y1="768" x2="972" y2="773" stroke="#fecaca" stroke-width="2" stroke-opacity="0.5" /><line x1="982" y1="671" x2="982" y2="666" stroke="#fecaca" stroke-width="2" stroke-opacity="0.5" /><line x1="982" y1="768" x2="982" y2="773" stroke="#fecaca" stroke-width="2" stroke-opacity="0.5" /><rect x="621" y="37" width="64" height="86" fill="#fecaca" fill-opacity="0.2" stroke="#fecaca" stroke-opacity="0.8" stroke-width="2" rx="4" /><line x1="626" y1="37" x2="626" y2="32" stroke="#fecaca" stroke-width="2" stroke-opacity="0.5" /><line x1="626" y1="123" x2="626" y2="128" stroke="#fecaca" stroke-width="2" stroke-opacity="0.5" /><line x1="636" y1="37" x2="636" y2="32" stroke="#fecaca" stroke-width="2" stroke-opacity="0.5" /><line x1="636" y1="123" x2="636" y2="128" stroke="#fecaca" stroke-width="2" stroke-opacity="0.5" /><line x1="646" y1="37" x2="646" y2="32" stroke="#fecaca" stroke-width="2" stroke-opacity="0.5" /><line x1="646" y1="123" x2="646" y2="128" stroke="#fecaca" stroke-width="2" stroke-opacity="0.5" /><line x1="656" y1="37" x2="656" y2="32" stroke="#fecaca" stroke-width="2" stroke-opacity="0.5" /><line x1="656" y1="123" x2="656" y2="128" stroke="#fecaca" stroke-width="2" stroke-opacity="0.5" /><line x1="666" y1="37" x2="666" y2="32" stroke="#fecaca" stroke-width="2" stroke-opacity="0.5" /><line x1="666" y1="123" x2="666" y2="128" stroke="#fecaca" stroke-width="2" stroke-opacity="0.5" /><line x1="676" y1="37" x2="676" y2="32" stroke="#fecaca" stroke-width="2" stroke-opacity="0.5" /><line x1="676" y1="123" x2="676" y2="128" stroke="#fecaca" stroke-width="2" stroke-opacity="0.5" /><rect x="1409" y="923" width="89" height="95" fill="#bae6fd" fill-opacity="0.2" stroke="#bae6fd" stroke-opacity="0.8" stroke-width="2" rx="4" /><line x1="1414" y1="923" x2="1414" y2="918" stroke="#bae6fd" stroke-width="2" stroke-opacity="0.5" /><line x1="1414" y1="1018" x2="1414" y2="1023" stroke="#bae6fd" stroke-width="2" stroke-opacity="0.5" /><line x1="1424" y1="923" x2="1424" y2="918" stroke="#bae6fd" stroke-width="2" stroke-opacity="0.5" /><line x1="1424" y1="1018" x2="1424" y2="1023" stroke="#bae6fd" stroke-width="2" stroke-opacity="0.5" /><line x1="1434" y1="923" x2="1434" y2="918" stroke="#bae6fd" stroke-width="2" stroke-opacity="0.5" /><line x1="1434" y1="1018" x2="1434" y2="1023" stroke="#bae6fd" stroke-width="2" stroke-opacity="0.5" /><line x1="1444" y1="923" x2="1444" y2="918" stroke="#bae6fd" stroke-width="2" stroke-opacity="0.5" /><line x1="1444" y1="1018" x2="1444" y2="1023" stroke="#bae6fd" stroke-width="2" stroke-opacity="0.5" /><line x1="1454" y1="923" x2="1454" y2="918" stroke="#bae6fd" stroke-width="2" stroke-opacity="0.5" /><line x1="1454" y1="1018" x2="1454" y2="1023" stroke="#bae6fd" stroke-width="2" stroke-opacity="0.5" /><line x1="1464" y1="923" x2="1464" y2="918" stroke="#bae6fd" stroke-width="2" stroke-opacity="0.5" /><line x1="1464" y1="1018" x2="1464" y2="1023" stroke="#bae6fd" stroke-width="2" stroke-opacity="0.5" /><line x1="1474" y1="923" x2="1474" y2="918" stroke="#bae6fd" stroke-width="2" stroke-opacity="0.5" /><line x1="1474" y1="1018" x2="1474" y2="1023" stroke="#bae6fd" stroke-width="2" stroke-opacity="0.5" /><line x1="1484" y1="923" x2="1484" y2="918" stroke="#bae6fd" stroke-width="2" stroke-opacity="0.5" /><line x1="1484" y1="1018" x2="1484" y2="1023" stroke="#bae6fd" stroke-width="2" stroke-opacity="0.5" /><line x1="1494" y1="923" x2="1494" y2="918" stroke="#bae6fd" stroke-width="2" stroke-opacity="0.5" /><line x1="1494" y1="1018" x2="1494" y2="1023" stroke="#bae6fd" stroke-width="2" stroke-opacity="0.5" /><rect x="1414" y="95" width="98" height="66" fill="#bae6fd" fill-opacity="0.2" stroke="#bae6fd" stroke-opacity="0.8" stroke-width="2" rx="4" /><line x1="1419" y1="95" x2="1419" y2="90" stroke="#bae6fd" stroke-width="2" stroke-opacity="0.5" /><line x1="1419" y1="161" x2="1419" y2="166" stroke="#bae6fd" stroke-width="2" stroke-opacity="0.5" /><line x1="1429" y1="95" x2="1429" y2="90" stroke="#bae6fd" stroke-width="2" stroke-opacity="0.5" /><line x1="1429" y1="161" x2="1429" y2="166" stroke="#bae6fd" stroke-width="2" stroke-opacity="0.5" /><line x1="1439" y1="95" x2="1439" y2="90" stroke="#bae6fd" stroke-width="2" stroke-opacity="0.5" /><line x1="1439" y1="161" x2="1439" y2="166" stroke="#bae6fd" stroke-width="2" stroke-opacity="0.5" /><line x1="1449" y1="95" x2="1449" y2="90" stroke="#bae6fd" stroke-width="2" stroke-opacity="0.5" /><line x1="1449" y1="161" x2="1449" y2="166" stroke="#bae6fd" stroke-width="2" stroke-opacity="0.5" /><line x1="1459" y1="95" x2="1459" y2="90" stroke="#bae6fd" stroke-width="2" stroke-opacity="0.5" /><line x1="1459" y1="161" x2="1459" y2="166" stroke="#bae6fd" stroke-width="2" stroke-opacity="0.5" /><line x1="1469" y1="95" x2="1469" y2="90" stroke="#bae6fd" stroke-width="2" stroke-opacity="0.5" /><line x1="1469" y1="161" x2="1469" y2="166" stroke="#bae6fd" stroke-width="2" stroke-opacity="0.5" /><line x1="1479" y1="95" x2="1479" y2="90" stroke="#bae6fd" stroke-width="2" stroke-opacity="0.5" /><line x1="1479" y1="161" x2="1479" y2="166" stroke="#bae6fd" stroke-width="2" stroke-opacity="0.5" /><line x1="1489" y1="95" x2="1489" y2="90" stroke="#bae6fd" stroke-width="2" stroke-opacity="0.5" /><line x1="1489" y1="161" x2="1489" y2="166" stroke="#bae6fd" stroke-width="2" stroke-opacity="0.5" /><line x1="1499" y1="95" x2="1499" y2="90" stroke="#bae6fd" stroke-width="2" stroke-opacity="0.5" /><line x1="1499" y1="161" x2="1499" y2="166" stroke="#bae6fd" stroke-width="2" stroke-opacity="0.5" /><line x1="1509" y1="95" x2="1509" y2="90" stroke="#bae6fd" stroke-width="2" stroke-opacity="0.5" /><line x1="1509" y1="161" x2="1509" y2="166" stroke="#bae6fd" stroke-width="2" stroke-opacity="0.5" /><rect x="1623" y="699" width="53" height="81" fill="#bae6fd" fill-opacity="0.2" stroke="#bae6fd" stroke-opacity="0.8" stroke-width="2" rx="4" /><line x1="1628" y1="699" x2="1628" y2="694" stroke="#bae6fd" stroke-width="2" stroke-opacity="0.5" /><line x1="1628" y1="780" x2="1628" y2="785" stroke="#bae6fd" stroke-width="2" stroke-opacity="0.5" /><line x1="1638" y1="699" x2="1638" y2="694" stroke="#bae6fd" stroke-width="2" stroke-opacity="0.5" /><line x1="1638" y1="780" x2="1638" y2="785" stroke="#bae6fd" stroke-width="2" stroke-opacity="0.5" /><line x1="1648" y1="699" x2="1648" y2="694" stroke="#bae6fd" stroke-width="2" stroke-opacity="0.5" /><line x1="1648" y1="780" x2="1648" y2="785" stroke="#bae6fd" stroke-width="2" stroke-opacity="0.5" /><line x1="1658" y1="699" x2="1658" y2="694" stroke="#bae6fd" stroke-width="2" stroke-opacity="0.5" /><line x1="1658" y1="780" x2="1658" y2="785" stroke="#bae6fd" stroke-width="2" stroke-opacity="0.5" /><line x1="1668" y1="699" x2="1668" y2="694" stroke="#bae6fd" stroke-width="2" stroke-opacity="0.5" /><line x1="1668" y1="780" x2="1668" y2="785" stroke="#bae6fd" stroke-width="2" stroke-opacity="0.5" /><rect x="798" y="873" width="40" height="77" fill="#fecaca" fill-opacity="0.2" stroke="#fecaca" stroke-opacity="0.8" stroke-width="2" rx="4" /><line x1="803" y1="873" x2="803" y2="868" stroke="#fecaca" stroke-width="2" stroke-opacity="0.5" /><line x1="803" y1="950" x2="803" y2="955" stroke="#fecaca" stroke-width="2" stroke-opacity="0.5" /><line x1="813" y1="873" x2="813" y2="868" stroke="#fecaca" stroke-width="2" stroke-opacity="0.5" /><line x1="813" y1="950" x2="813" y2="955" stroke="#fecaca" stroke-width="2" stroke-opacity="0.5" /><line x1="823" y1="873" x2="823" y2="868" stroke="#fecaca" stroke-width="2" stroke-opacity="0.5" /><line x1="823" y1="950" x2="823" y2="955" stroke="#fecaca" stroke-width="2" stroke-opacity="0.5" /><line x1="833" y1="873" x2="833" y2="868" stroke="#fecaca" stroke-width="2" stroke-opacity="0.5" /><line x1="833" y1="950" x2="833" y2="955" stroke="#fecaca" stroke-width="2" stroke-opacity="0.5" /><rect x="983" y="970" width="98" height="73" fill="#ddd6fe" fill-opacity="0.2" stroke="#ddd6fe" stroke-opacity="0.8" stroke-width="2" rx="4" /><line x1="988" y1="970" x2="988" y2="965" stroke="#ddd6fe" stroke-width="2" stroke-opacity="0.5" /><line x1="988" y1="1043" x2="988" y2="1048" stroke="#ddd6fe" stroke-width="2" stroke-opacity="0.5" /><line x1="998" y1="970" x2="998" y2="965" stroke="#ddd6fe" stroke-width="2" stroke-opacity="0.5" /><line x1="998" y1="1043" x2="998" y2="1048" stroke="#ddd6fe" stroke-width="2" stroke-opacity="0.5" /><line x1="1008" y1="970" x2="1008" y2="965" stroke="#ddd6fe" stroke-width="2" stroke-opacity="0.5" /><line x1="1008" y1="1043" x2="1008" y2="1048" stroke="#ddd6fe" stroke-width="2" stroke-opacity="0.5" /><line x1="1018" y1="970" x2="1018" y2="965" stroke="#ddd6fe" stroke-width="2" stroke-opacity="0.5" /><line x1="1018" y1="1043" x2="1018" y2="1048" stroke="#ddd6fe" stroke-width="2" stroke-opacity="0.5" /><line x1="1028" y1="970" x2="1028" y2="965" stroke="#ddd6fe" stroke-width="2" stroke-opacity="0.5" /><line x1="1028" y1="1043" x2="1028" y2="1048" stroke="#ddd6fe" stroke-width="2" stroke-opacity="0.5" /><line x1="1038" y1="970" x2="1038" y2="965" stroke="#ddd6fe" stroke-width="2" stroke-opacity="0.5" /><line x1="1038" y1="1043" x2="1038" y2="1048" stroke="#ddd6fe" stroke-width="2" stroke-opacity="0.5" /><line x1="1048" y1="970" x2="1048" y2="965" stroke="#ddd6fe" stroke-width="2" stroke-opacity="0.5" /><line x1="1048" y1="1043" x2="1048" y2="1048" stroke="#ddd6fe" stroke-width="2" stroke-opacity="0.5" /><line x1="1058" y1="970" x2="1058" y2="965" stroke="#ddd6fe" stroke-width="2" stroke-opacity="0.5" /><line x1="1058" y1="1043" x2="1058" y2="1048" stroke="#ddd6fe" stroke-width="2" stroke-opacity="0.5" /><line x1="1068" y1="970" x2="1068" y2="965" stroke="#ddd6fe" stroke-width="2" stroke-opacity="0.5" /><line x1="1068" y1="1043" x2="1068" y2="1048" stroke="#ddd6fe" stroke-width="2" stroke-opacity="0.5" /><line x1="1078" y1="970" x2="1078" y2="965" stroke="#ddd6fe" stroke-width="2" stroke-opacity="0.5" /><line x1="1078" y1="1043" x2="1078" y2="1048" stroke="#ddd6fe" stroke-width="2" stroke-opacity="0.5" /><rect x="1361" y="975" width="78" height="83" fill="#fecaca" fill-opacity="0.2" stroke="#fecaca" stroke-opacity="0.8" stroke-width="2" rx="4" /><line x1="1366" y1="975" x2="1366" y2="970" stroke="#fecaca" stroke-width="2" stroke-opacity="0.5" /><line x1="1366" y1="1058" x2="1366" y2="1063" stroke="#fecaca" stroke-width="2" stroke-opacity="0.5" /><line x1="1376" y1="975" x2="1376" y2="970" stroke="#fecaca" stroke-width="2" stroke-opacity="0.5" /><line x1="1376" y1="1058" x2="1376" y2="1063" stroke="#fecaca" stroke-width="2" stroke-opacity="0.5" /><line x1="1386" y1="975" x2="1386" y2="970" stroke="#fecaca" stroke-width="2" stroke-opacity="0.5" /><line x1="1386" y1="1058" x2="1386" y2="1063" stroke="#fecaca" stroke-width="2" stroke-opacity="0.5" /><line x1="1396" y1="975" x2="1396" y2="970" stroke="#fecaca" stroke-width="2" stroke-opacity="0.5" /><line x1="1396" y1="1058" x2="1396" y2="1063" stroke="#fecaca" stroke-width="2" stroke-opacity="0.5" /><line x1="1406" y1="975" x2="1406" y2="970" stroke="#fecaca" stroke-width="2" stroke-opacity="0.5" /><line x1="1406" y1="1058" x2="1406" y2="1063" stroke="#fecaca" stroke-width="2" stroke-opacity="0.5" /><line x1="1416" y1="975" x2="1416" y2="970" stroke="#fecaca" stroke-width="2" stroke-opacity="0.5" /><line x1="1416" y1="1058" x2="1416" y2="1063" stroke="#fecaca" stroke-width="2" stroke-opacity="0.5" /><line x1="1426" y1="975" x2="1426" y2="970" stroke="#fecaca" stroke-width="2" stroke-opacity="0.5" /><line x1="1426" y1="1058" x2="1426" y2="1063" stroke="#fecaca" stroke-width="2" stroke-opacity="0.5" /><line x1="1436" y1="975" x2="1436" y2="970" stroke="#fecaca" stroke-width="2" stroke-opacity="0.5" /><line x1="1436" y1="1058" x2="1436" y2="1063" stroke="#fecaca" stroke-width="2" stroke-opacity="0.5" /><rect x="723" y="360" width="85" height="51" fill="#a5f3fc" fill-opacity="0.2" stroke="#a5f3fc" stroke-opacity="0.8" stroke-width="2" rx="4" /><line x1="728" y1="360" x2="728" y2="355" stroke="#a5f3fc" stroke-width="2" stroke-opacity="0.5" /><line x1="728" y1="411" x2="728" y2="416" stroke="#a5f3fc" stroke-width="2" stroke-opacity="0.5" /><line x1="738" y1="360" x2="738" y2="355" stroke="#a5f3fc" stroke-width="2" stroke-opacity="0.5" /><line x1="738" y1="411" x2="738" y2="416" stroke="#a5f3fc" stroke-width="2" stroke-opacity="0.5" /><line x1="748" y1="360" x2="748" y2="355" stroke="#a5f3fc" stroke-width="2" stroke-opacity="0.5" /><line x1="748" y1="411" x2="748" y2="416" stroke="#a5f3fc" stroke-width="2" stroke-opacity="0.5" /><line x1="758" y1="360" x2="758" y2="355" stroke="#a5f3fc" stroke-width="2" stroke-opacity="0.5" /><line x1="758" y1="411" x2="758" y2="416" stroke="#a5f3fc" stroke-width="2" stroke-opacity="0.5" /><line x1="768" y1="360" x2="768" y2="355" stroke="#a5f3fc" stroke-width="2" stroke-opacity="0.5" /><line x1="768" y1="411" x2="768" y2="416" stroke="#a5f3fc" stroke-width="2" stroke-opacity="0.5" /><line x1="778" y1="360" x2="778" y2="355" stroke="#a5f3fc" stroke-width="2" stroke-opacity="0.5" /><line x1="778" y1="411" x2="778" y2="416" stroke="#a5f3fc" stroke-width="2" stroke-opacity="0.5" /><line x1="788" y1="360" x2="788" y2="355" stroke="#a5f3fc" stroke-width="2" stroke-opacity="0.5" /><line x1="788" y1="411" x2="788" y2="416" stroke="#a5f3fc" stroke-width="2" stroke-opacity="0.5" /><line x1="798" y1="360" x2="798" y2="355" stroke="#a5f3fc" stroke-width="2" stroke-opacity="0.5" /><line x1="798" y1="411" x2="798" y2="416" stroke="#a5f3fc" stroke-width="2" stroke-opacity="0.5" /><rect x="1265" y="648" width="76" height="73" fill="#bae6fd" fill-opacity="0.2" stroke="#bae6fd" stroke-opacity="0.8" stroke-width="2" rx="4" /><line x1="1270" y1="648" x2="1270" y2="643" stroke="#bae6fd" stroke-width="2" stroke-opacity="0.5" /><line x1="1270" y1="721" x2="1270" y2="726" stroke="#bae6fd" stroke-width="2" stroke-opacity="0.5" /><line x1="1280" y1="648" x2="1280" y2="643" stroke="#bae6fd" stroke-width="2" stroke-opacity="0.5" /><line x1="1280" y1="721" x2="1280" y2="726" stroke="#bae6fd" stroke-width="2" stroke-opacity="0.5" /><line x1="1290" y1="648" x2="1290" y2="643" stroke="#bae6fd" stroke-width="2" stroke-opacity="0.5" /><line x1="1290" y1="721" x2="1290" y2="726" stroke="#bae6fd" stroke-width="2" stroke-opacity="0.5" /><line x1="1300" y1="648" x2="1300" y2="643" stroke="#bae6fd" stroke-width="2" stroke-opacity="0.5" /><line x1="1300" y1="721" x2="1300" y2="726" stroke="#bae6fd" stroke-width="2" stroke-opacity="0.5" /><line x1="1310" y1="648" x2="1310" y2="643" stroke="#bae6fd" stroke-width="2" stroke-opacity="0.5" /><line x1="1310" y1="721" x2="1310" y2="726" stroke="#bae6fd" stroke-width="2" stroke-opacity="0.5" /><line x1="1320" y1="648" x2="1320" y2="643" stroke="#bae6fd" stroke-width="2" stroke-opacity="0.5" /><line x1="1320" y1="721" x2="1320" y2="726" stroke="#bae6fd" stroke-width="2" stroke-opacity="0.5" /><line x1="1330" y1="648" x2="1330" y2="643" stroke="#bae6fd" stroke-width="2" stroke-opacity="0.5" /><line x1="1330" y1="721" x2="1330" y2="726" stroke="#bae6fd" stroke-width="2" stroke-opacity="0.5" /><line x1="1340" y1="648" x2="1340" y2="643" stroke="#bae6fd" stroke-width="2" stroke-opacity="0.5" /><line x1="1340" y1="721" x2="1340" y2="726" stroke="#bae6fd" stroke-width="2" stroke-opacity="0.5" /><rect x="128" y="605" width="55" height="54" fill="#bae6fd" fill-opacity="0.2" stroke="#bae6fd" stroke-opacity="0.8" stroke-width="2" rx="4" /><line x1="133" y1="605" x2="133" y2="600" stroke="#bae6fd" stroke-width="2" stroke-opacity="0.5" /><line x1="133" y1="659" x2="133" y2="664" stroke="#bae6fd" stroke-width="2" stroke-opacity="0.5" /><line x1="143" y1="605" x2="143" y2="600" stroke="#bae6fd" stroke-width="2" stroke-opacity="0.5" /><line x1="143" y1="659" x2="143" y2="664" stroke="#bae6fd" stroke-width="2" stroke-opacity="0.5" /><line x1="153" y1="605" x2="153" y2="600" stroke="#bae6fd" stroke-width="2" stroke-opacity="0.5" /><line x1="153" y1="659" x2="153" y2="664" stroke="#bae6fd" stroke-width="2" stroke-opacity="0.5" /><line x1="163" y1="605" x2="163" y2="600" stroke="#bae6fd" stroke-width="2" stroke-opacity="0.5" /><line x1="163" y1="659" x2="163" y2="664" stroke="#bae6fd" stroke-width="2" stroke-opacity="0.5" /><line x1="173" y1="605" x2="173" y2="600" stroke="#bae6fd" stroke-width="2" stroke-opacity="0.5" /><line x1="173" y1="659" x2="173" y2="664" stroke="#bae6fd" stroke-width="2" stroke-opacity="0.5" /><rect x="343" y="163" width="41" height="57" fill="#a5f3fc" fill-opacity="0.2" stroke="#a5f3fc" stroke-opacity="0.8" stroke-width="2" rx="4" /><line x1="348" y1="163" x2="348" y2="158" stroke="#a5f3fc" stroke-width="2" stroke-opacity="0.5" /><line x1="348" y1="220" x2="348" y2="225" stroke="#a5f3fc" stroke-width="2" stroke-opacity="0.5" /><line x1="358" y1="163" x2="358" y2="158" stroke="#a5f3fc" stroke-width="2" stroke-opacity="0.5" /><line x1="358" y1="220" x2="358" y2="225" stroke="#a5f3fc" stroke-width="2" stroke-opacity="0.5" /><line x1="368" y1="163" x2="368" y2="158" stroke="#a5f3fc" stroke-width="2" stroke-opacity="0.5" /><line x1="368" y1="220" x2="368" y2="225" stroke="#a5f3fc" stroke-width="2" stroke-opacity="0.5" /><line x1="378" y1="163" x2="378" y2="158" stroke="#a5f3fc" stroke-width="2" stroke-opacity="0.5" /><line x1="378" y1="220" x2="378" y2="225" stroke="#a5f3fc" stroke-width="2" stroke-opacity="0.5" /><rect x="522" y="173" width="90" height="54" fill="#a5f3fc" fill-opacity="0.2" stroke="#a5f3fc" stroke-opacity="0.8" stroke-width="2" rx="4" /><line x1="527" y1="173" x2="527" y2="168" stroke="#a5f3fc" stroke-width="2" stroke-opacity="0.5" /><line x1="527" y1="227" x2="527" y2="232" stroke="#a5f3fc" stroke-width="2" stroke-opacity="0.5" /><line x1="537" y1="173" x2="537" y2="168" stroke="#a5f3fc" stroke-width="2" stroke-opacity="0.5" /><line x1="537" y1="227" x2="537" y2="232" stroke="#a5f3fc" stroke-width="2" stroke-opacity="0.5" /><line x1="547" y1="173" x2="547" y2="168" stroke="#a5f3fc" stroke-width="2" stroke-opacity="0.5" /><line x1="547" y1="227" x2="547" y2="232" stroke="#a5f3fc" stroke-width="2" stroke-opacity="0.5" /><line x1="557" y1="173" x2="557" y2="168" stroke="#a5f3fc" stroke-width="2" stroke-opacity="0.5" /><line x1="557" y1="227" x2="557" y2="232" stroke="#a5f3fc" stroke-width="2" stroke-opacity="0.5" /><line x1="567" y1="173" x2="567" y2="168" stroke="#a5f3fc" stroke-width="2" stroke-opacity="0.5" /><line x1="567" y1="227" x2="567" y2="232" stroke="#a5f3fc" stroke-width="2" stroke-opacity="0.5" /><line x1="577" y1="173" x2="577" y2="168" stroke="#a5f3fc" stroke-width="2" stroke-opacity="0.5" /><line x1="577" y1="227" x2="577" y2="232" stroke="#a5f3fc" stroke-width="2" stroke-opacity="0.5" /><line x1="587" y1="173" x2="587" y2="168" stroke="#a5f3fc" stroke-width="2" stroke-opacity="0.5" /><line x1="587" y1="227" x2="587" y2="232" stroke="#a5f3fc" stroke-width="2" stroke-opacity="0.5" /><line x1="597" y1="173" x2="597" y2="168" stroke="#a5f3fc" stroke-width="2" stroke-opacity="0.5" /><line x1="597" y1="227" x2="597" y2="232" stroke="#a5f3fc" stroke-width="2" stroke-opacity="0.5" /><line x1="607" y1="173" x2="607" y2="168" stroke="#a5f3fc" stroke-width="2" stroke-opacity="0.5" /><line x1="607" y1="227" x2="607" y2="232" stroke="#a5f3fc" stroke-width="2" stroke-opacity="0.5" /><rect x="987" y="94" width="51" height="44" fill="#bae6fd" fill-opacity="0.2" stroke="#bae6fd" stroke-opacity="0.8" stroke-width="2" rx="4" /><line x1="992" y1="94" x2="992" y2="89" stroke="#bae6fd" stroke-width="2" stroke-opacity="0.5" /><line x1="992" y1="138" x2="992" y2="143" stroke="#bae6fd" stroke-width="2" stroke-opacity="0.5" /><line x1="1002" y1="94" x2="1002" y2="89" stroke="#bae6fd" stroke-width="2" stroke-opacity="0.5" /><line x1="1002" y1="138" x2="1002" y2="143" stroke="#bae6fd" stroke-width="2" stroke-opacity="0.5" /><line x1="1012" y1="94" x2="1012" y2="89" stroke="#bae6fd" stroke-width="2" stroke-opacity="0.5" /><line x1="1012" y1="138" x2="1012" y2="143" stroke="#bae6fd" stroke-width="2" stroke-opacity="0.5" /><line x1="1022" y1="94" x2="1022" y2="89" stroke="#bae6fd" stroke-width="2" stroke-opacity="0.5" /><line x1="1022" y1="138" x2="1022" y2="143" stroke="#bae6fd" stroke-width="2" stroke-opacity="0.5" /><line x1="1032" y1="94" x2="1032" y2="89" stroke="#bae6fd" stroke-width="2" stroke-opacity="0.5" /><line x1="1032" y1="138" x2="1032" y2="143" stroke="#bae6fd" stroke-width="2" stroke-opacity="0.5" /><rect x="270" y="599" width="69" height="43" fill="#fecaca" fill-opacity="0.2" stroke="#fecaca" stroke-opacity="0.8" stroke-width="2" rx="4" /><line x1="275" y1="599" x2="275" y2="594" stroke="#fecaca" stroke-width="2" stroke-opacity="0.5" /><line x1="275" y1="642" x2="275" y2="647" stroke="#fecaca" stroke-width="2" stroke-opacity="0.5" /><line x1="285" y1="599" x2="285" y2="594" stroke="#fecaca" stroke-width="2" stroke-opacity="0.5" /><line x1="285" y1="642" x2="285" y2="647" stroke="#fecaca" stroke-width="2" stroke-opacity="0.5" /><line x1="295" y1="599" x2="295" y2="594" stroke="#fecaca" stroke-width="2" stroke-opacity="0.5" /><line x1="295" y1="642" x2="295" y2="647" stroke="#fecaca" stroke-width="2" stroke-opacity="0.5" /><line x1="305" y1="599" x2="305" y2="594" stroke="#fecaca" stroke-width="2" stroke-opacity="0.5" /><line x1="305" y1="642" x2="305" y2="647" stroke="#fecaca" stroke-width="2" stroke-opacity="0.5" /><line x1="315" y1="599" x2="315" y2="594" stroke="#fecaca" stroke-width="2" stroke-opacity="0.5" /><line x1="315" y1="642" x2="315" y2="647" stroke="#fecaca" stroke-width="2" stroke-opacity="0.5" /><line x1="325" y1="599" x2="325" y2="594" stroke="#fecaca" stroke-width="2" stroke-opacity="0.5" /><line x1="325" y1="642" x2="325" y2="647" stroke="#fecaca" stroke-width="2" stroke-opacity="0.5" /><line x1="335" y1="599" x2="335" y2="594" stroke="#fecaca" stroke-width="2" stroke-opacity="0.5" /><line x1="335" y1="642" x2="335" y2="647" stroke="#fecaca" stroke-width="2" stroke-opacity="0.5" /><circle cx="165" cy="384" r="1.5" fill="#fecaca" fill-opacity="0.4" /><circle cx="228" cy="384" r="1.5" fill="#fecaca" fill-opacity="0.4" /><path d="M 93 384 L 165 384 L 228 384 L 301 384 L 344 384 L 303 384 L 303 364" stroke="#fecaca" stroke-width="1" fill="none" stroke-opacity="0.4" stroke-linecap="round" stroke-linejoin="round" /><circle cx="303" cy="364" r="2" fill="#fecaca" fill-opacity="0.6" /><circle cx="175" cy="1061" r="4.5" fill="#fecaca" fill-opacity="0.4" /><path d="M 191 1061 L 116 1061 L 175 1061 L 219 1061" stroke="#fecaca" stroke-width="3" fill="none" stroke-opacity="0.4" stroke-linecap="round" stroke-linejoin="round" /><circle cx="219" cy="1061" r="6" fill="#fecaca" fill-opacity="0.6" /><circle cx="202" cy="529" r="1.5" fill="#a5f3fc" fill-opacity="0.4" /><path d="M 136 529 L 202 529 L 202 581 L 202 617 L 202 653 L 160 653 L 160 604 L 160 543 L 160 585 L 101 585" stroke="#a5f3fc" stroke-width="1" fill="none" stroke-opacity="0.4" stroke-linecap="round" stroke-linejoin="round" /><circle cx="101" cy="585" r="2" fill="#a5f3fc" fill-opacity="0.6" /><circle cx="1448" cy="316" r="1.5" fill="#a5f3fc" fill-opacity="0.4" /><circle cx="1470" cy="138" r="1.5" fill="#a5f3fc" fill-opacity="0.4" /><path d="M 1376 236 L 1376 316 L 1448 316 L 1448 282 L 1470 282 L 1470 205 L 1470 185 L 1470 138" stroke="#a5f3fc" stroke-width="1" fill="none" stroke-opacity="0.4" stroke-linecap="round" stroke-linejoin="round" /><circle cx="1470" cy="138" r="2" fill="#a5f3fc" fill-opacity="0.6" /><circle cx="1746" cy="953" r="1.5" fill="#a5f3fc" fill-opacity="0.4" /><circle cx="1817" cy="919" r="1.5" fill="#a5f3fc" fill-opacity="0.4" /><circle cx="1959" cy="868" r="1.5" fill="#a5f3fc" fill-opacity="0.4" /><circle cx="1891" cy="868" r="1.5" fill="#a5f3fc" fill-opacity="0.4" /><circle cx="1921" cy="868" r="1.5" fill="#a5f3fc" fill-opacity="0.4" /><path d="M 1809 953 L 1746 953 L 1817 953 L 1817 919 L 1895 919 L 1895 868 L 1928 868 L 1959 868 L 1891 868 L 1921 868" stroke="#a5f3fc" stroke-width="1" fill="none" stroke-opacity="0.4" stroke-linecap="round" stroke-linejoin="round" /><circle cx="1921" cy="868" r="2" fill="#a5f3fc" fill-opacity="0.6" /><circle cx="1232" cy="660" r="4.5" fill="#fecaca" fill-opacity="0.4" /><path d="M 1160 728 L 1113 728 L 1161 728 L 1218 728 L 1182 728 L 1182 705 L 1258 705 L 1232 705 L 1232 660 L 1310 660" stroke="#fecaca" stroke-width="3" fill="none" stroke-opacity="0.4" stroke-linecap="round" stroke-linejoin="round" /><circle cx="1310" cy="660" r="6" fill="#fecaca" fill-opacity="0.6" /><circle cx="563" cy="166" r="1.5" fill="#fde68a" fill-opacity="0.4" /><path d="M 623 357 L 623 284 L 623 221 L 563 221 L 563 166 L 609 166" stroke="#fde68a" stroke-width="1" fill="none" stroke-opacity="0.4" stroke-linecap="round" stroke-linejoin="round" /><circle cx="609" cy="166" r="2" fill="#fde68a" fill-opacity="0.6" /><circle cx="1034" cy="242" r="3" fill="#fecaca" fill-opacity="0.4" /><circle cx="1083" cy="242" r="3" fill="#fecaca" fill-opacity="0.4" /><path d="M 1114 343 L 1114 282 L 1114 242 L 1034 242 L 1083 242 L 1025 242 L 1025 297" stroke="#fecaca" stroke-width="2" fill="none" stroke-opacity="0.4" stroke-linecap="round" stroke-linejoin="round" /><circle cx="1025" cy="297" r="4" fill="#fecaca" fill-opacity="0.6" /><circle cx="1826" cy="212" r="4.5" fill="#ddd6fe" fill-opacity="0.4" /><circle cx="1724" cy="271" r="4.5" fill="#ddd6fe" fill-opacity="0.4" /><path d="M 1780 212 L 1826 212 L 1750 212 L 1750 271 L 1724 271 L 1724 300 L 1644 300" stroke="#ddd6fe" stroke-width="3" fill="none" stroke-opacity="0.4" stroke-linecap="round" stroke-linejoin="round" /><circle cx="1644" cy="300" r="6" fill="#ddd6fe" fill-opacity="0.6" /><circle cx="1926" cy="257" r="4.5" fill="#a5f3fc" fill-opacity="0.4" /><path d="M 1898 339 L 1898 302 L 1898 258 L 1898 280 L 1926 280 L 1926 257 L 1855 257 L 1824 257 L 1785 257 L 1862 257 L 1827 257 L 1865 257" stroke="#a5f3fc" stroke-width="3" fill="none" stroke-opacity="0.4" stroke-linecap="round" stroke-linejoin="round" /><circle cx="1865" cy="257" r="6" fill="#a5f3fc" fill-opacity="0.6" /><circle cx="320" cy="82" r="3" fill="#fde68a" fill-opacity="0.4" /><circle cx="320" cy="151" r="3" fill="#fde68a" fill-opacity="0.4" /><circle cx="344" cy="151" r="3" fill="#fde68a" fill-opacity="0.4" /><circle cx="364" cy="98" r="3" fill="#fde68a" fill-opacity="0.4" /><path d="M 274 82 L 320 82 L 320 151 L 344 151 L 371 151 L 332 151 L 332 98 L 364 98" stroke="#fde68a" stroke-width="2" fill="none" stroke-opacity="0.4" stroke-linecap="round" stroke-linejoin="round" /><circle cx="364" cy="98" r="4" fill="#fde68a" fill-opacity="0.6" /><path d="M 317 338 L 246 338 L 189 338 L 245 338" stroke="#ddd6fe" stroke-width="1" fill="none" stroke-opacity="0.4" stroke-linecap="round" stroke-linejoin="round" /><circle cx="245" cy="338" r="2" fill="#ddd6fe" fill-opacity="0.6" /><circle cx="832" cy="734" r="3" fill="#fde68a" fill-opacity="0.4" /><circle cx="766" cy="803" r="3" fill="#fde68a" fill-opacity="0.4" /><circle cx="766" cy="758" r="3" fill="#fde68a" fill-opacity="0.4" /><path d="M 901 703 L 901 734 L 832 734 L 832 803 L 766 803 L 766 758" stroke="#fde68a" stroke-width="2" fill="none" stroke-opacity="0.4" stroke-linecap="round" stroke-linejoin="round" /><circle cx="766" cy="758" r="4" fill="#fde68a" fill-opacity="0.6" /><path d="M 1828 1072 L 1869 1072 L 1843 1072 L 1843 1046 L 1904 1046" stroke="#ddd6fe" stroke-width="3" fill="none" stroke-opacity="0.4" stroke-linecap="round" stroke-linejoin="round" /><circle cx="1904" cy="1046" r="6" fill="#ddd6fe" fill-opacity="0.6" /><circle cx="1858" cy="341" r="4.5" fill="#fecaca" fill-opacity="0.4" /><circle cx="1809" cy="341" r="4.5" fill="#fecaca" fill-opacity="0.4" /><circle cx="1809" cy="466" r="4.5" fill="#fecaca" fill-opacity="0.4" /><circle cx="1809" cy="497" r="4.5" fill="#fecaca" fill-opacity="0.4" /><path d="M 1858 300 L 1858 276 L 1858 341 L 1809 341 L 1809 398 L 1809 466 L 1809 497" stroke="#fecaca" stroke-width="3" fill="none" stroke-opacity="0.4" stroke-linecap="round" stroke-linejoin="round" /><circle cx="1809" cy="497" r="6" fill="#fecaca" fill-opacity="0.6" /><circle cx="434" cy="869" r="1.5" fill="#fecaca" fill-opacity="0.4" /><circle cx="489" cy="717" r="1.5" fill="#fecaca" fill-opacity="0.4" /><path d="M 357 898 L 408 898 L 434 898 L 434 869 L 434 814 L 414 814 L 489 814 L 489 777 L 489 738 L 489 782 L 489 717" stroke="#fecaca" stroke-width="1" fill="none" stroke-opacity="0.4" stroke-linecap="round" stroke-linejoin="round" /><circle cx="489" cy="717" r="2" fill="#fecaca" fill-opacity="0.6" /><circle cx="143" cy="667" r="1.5" fill="#a5f3fc" fill-opacity="0.4" /><path d="M 76 667 L 143 667 L 75 667 L 75 630 L 55 630 L 10 630" stroke="#a5f3fc" stroke-width="1" fill="none" stroke-opacity="0.4" stroke-linecap="round" stroke-linejoin="round" /><circle cx="10" cy="630" r="2" fill="#a5f3fc" fill-opacity="0.6" /><circle cx="1083" cy="258" r="1.5" fill="#ddd6fe" fill-opacity="0.4" /><path d="M 1061 258 L 1083 258 L 1083 209 L 1040 209 L 1099 209" stroke="#ddd6fe" stroke-width="1" fill="none" stroke-opacity="0.4" stroke-linecap="round" stroke-linejoin="round" /><circle cx="1099" cy="209" r="2" fill="#ddd6fe" fill-opacity="0.6" /><circle cx="1643" cy="530" r="4.5" fill="#fecaca" fill-opacity="0.4" /><path d="M 1643 454 L 1643 530 L 1693 530 L 1693 566" stroke="#fecaca" stroke-width="3" fill="none" stroke-opacity="0.4" stroke-linecap="round" stroke-linejoin="round" /><circle cx="1693" cy="566" r="6" fill="#fecaca" fill-opacity="0.6" /><path d="M 87 557 L 117 557 L 83 557 L 130 557 L 130 516 L 130 453" stroke="#a5f3fc" stroke-width="3" fill="none" stroke-opacity="0.4" stroke-linecap="round" stroke-linejoin="round" /><circle cx="130" cy="453" r="6" fill="#a5f3fc" fill-opacity="0.6" /><circle cx="50" cy="752" r="4.5" fill="#fecaca" fill-opacity="0.4" /><circle cx="112" cy="807" r="4.5" fill="#fecaca" fill-opacity="0.4" /><circle cx="175" cy="807" r="4.5" fill="#fecaca" fill-opacity="0.4" /><circle cx="133" cy="878" r="4.5" fill="#fecaca" fill-opacity="0.4" /><path d="M 100 752 L 50 752 L 112 752 L 112 807 L 175 807 L 133 807 L 133 878" stroke="#fecaca" stroke-width="3" fill="none" stroke-opacity="0.4" stroke-linecap="round" stroke-linejoin="round" /><circle cx="133" cy="878" r="6" fill="#fecaca" fill-opacity="0.6" /><circle cx="1799" cy="129" r="3" fill="#a5f3fc" fill-opacity="0.4" /><circle cx="1799" cy="196" r="3" fill="#a5f3fc" fill-opacity="0.4" /><circle cx="1764" cy="193" r="3" fill="#a5f3fc" fill-opacity="0.4" /><path d="M 1799 97 L 1799 129 L 1799 159 L 1799 229 L 1799 199 L 1799 235 L 1799 196 L 1799 254 L 1824 254 L 1824 193 L 1764 193" stroke="#a5f3fc" stroke-width="2" fill="none" stroke-opacity="0.4" stroke-linecap="round" stroke-linejoin="round" /><circle cx="1764" cy="193" r="4" fill="#a5f3fc" fill-opacity="0.6" /><path d="M 763 703 L 763 741 L 763 674 L 763 710 L 697 710" stroke="#fecaca" stroke-width="1" fill="none" stroke-opacity="0.4" stroke-linecap="round" stroke-linejoin="round" /><circle cx="697" cy="710" r="2" fill="#fecaca" fill-opacity="0.6" /><circle cx="1658" cy="355" r="3" fill="#ddd6fe" fill-opacity="0.4" /><path d="M 1826 355 L 1784 355 L 1710 355 L 1658 355 L 1621 355" stroke="#ddd6fe" stroke-width="2" fill="none" stroke-opacity="0.4" stroke-linecap="round" stroke-linejoin="round" /><circle cx="1621" cy="355" r="4" fill="#ddd6fe" fill-opacity="0.6" /><path d="M 891 844 L 816 844 L 873 844 L 845 844 L 845 869 L 845 835 L 845 890" stroke="#fde68a" stroke-width="3" fill="none" stroke-opacity="0.4" stroke-linecap="round" stroke-linejoin="round" /><circle cx="845" cy="890" r="6" fill="#fde68a" fill-opacity="0.6" /><path d="M 1569 471 L 1569 504 L 1569 443 L 1538 443 L 1538 412 L 1473 412 L 1550 412 L 1481 412 L 1481 354" stroke="#ddd6fe" stroke-width="3" fill="none" stroke-opacity="0.4" stroke-linecap="round" stroke-linejoin="round" /><circle cx="1481" cy="354" r="6" fill="#ddd6fe" fill-opacity="0.6" /><circle cx="1280" cy="932" r="3" fill="#fecaca" fill-opacity="0.4" /><circle cx="1318" cy="1068" r="3" fill="#fecaca" fill-opacity="0.4" /><path d="M 1303 932 L 1233 932 L 1207 932 L 1282 932 L 1308 932 L 1280 932 L 1280 1012 L 1280 1068 L 1318 1068 L 1318 1026" stroke="#fecaca" stroke-width="2" fill="none" stroke-opacity="0.4" stroke-linecap="round" stroke-linejoin="round" /><circle cx="1318" cy="1026" r="4" fill="#fecaca" fill-opacity="0.6" /><circle cx="1576" cy="1016" r="4.5" fill="#a5f3fc" fill-opacity="0.4" /><path d="M 1522 1050 L 1522 1016 L 1576 1016 L 1576 1080" stroke="#a5f3fc" stroke-width="3" fill="none" stroke-opacity="0.4" stroke-linecap="round" stroke-linejoin="round" /><circle cx="1576" cy="1080" r="6" fill="#a5f3fc" fill-opacity="0.6" /><circle cx="583" cy="372" r="4.5" fill="#a5f3fc" fill-opacity="0.4" /><path d="M 542 473 L 519 473 L 519 416 L 583 416 L 583 351 L 583 415 L 583 372" stroke="#a5f3fc" stroke-width="3" fill="none" stroke-opacity="0.4" stroke-linecap="round" stroke-linejoin="round" /><circle cx="583" cy="372" r="6" fill="#a5f3fc" fill-opacity="0.6" /><circle cx="1045" cy="589" r="4.5" fill="#fde68a" fill-opacity="0.4" /><circle cx="1058" cy="589" r="4.5" fill="#fde68a" fill-opacity="0.4" /><path d="M 1094 589 L 1117 589 L 1045 589 L 1108 589 L 1058 589 L 1058 665" stroke="#fde68a" stroke-width="3" fill="none" stroke-opacity="0.4" stroke-linecap="round" stroke-linejoin="round" /><circle cx="1058" cy="665" r="6" fill="#fde68a" fill-opacity="0.6" /><circle cx="942" cy="154" r="1.5" fill="#a5f3fc" fill-opacity="0.4" /><circle cx="942" cy="97" r="1.5" fill="#a5f3fc" fill-opacity="0.4" /><path d="M 1009 176 L 1009 154 L 942 154 L 942 97 L 880 97" stroke="#a5f3fc" stroke-width="1" fill="none" stroke-opacity="0.4" stroke-linecap="round" stroke-linejoin="round" /><circle cx="880" cy="97" r="2" fill="#a5f3fc" fill-opacity="0.6" /><circle cx="469" cy="1148" r="1.5" fill="#fecaca" fill-opacity="0.4" /><circle cx="422" cy="1148" r="1.5" fill="#fecaca" fill-opacity="0.4" /><path d="M 519 1041 L 519 1087 L 519 1148 L 469 1148 L 422 1148 L 499 1148 L 499 1094" stroke="#fecaca" stroke-width="1" fill="none" stroke-opacity="0.4" stroke-linecap="round" stroke-linejoin="round" /><circle cx="499" cy="1094" r="2" fill="#fecaca" fill-opacity="0.6" /><path d="M 425 329 L 425 262 L 466 262 L 435 262 L 435 309 L 435 272" stroke="#fde68a" stroke-width="2" fill="none" stroke-opacity="0.4" stroke-linecap="round" stroke-linejoin="round" /><circle cx="435" cy="272" r="4" fill="#fde68a" fill-opacity="0.6" /><path d="M 621 37 L 543 37 L 543 -26 L 543 -76 L 543 -147 L 543 -75 L 575 -75 L 575 -5 L 630 -5" stroke="#bae6fd" stroke-width="1" fill="none" stroke-opacity="0.4" stroke-linecap="round" stroke-linejoin="round" /><circle cx="630" cy="-5" r="2" fill="#bae6fd" fill-opacity="0.6" /><circle cx="943" cy="222" r="3" fill="#fecaca" fill-opacity="0.4" /><circle cx="888" cy="222" r="3" fill="#fecaca" fill-opacity="0.4" /><path d="M 978 222 L 943 222 L 888 222 L 958 222 L 993 222" stroke="#fecaca" stroke-width="2" fill="none" stroke-opacity="0.4" stroke-linecap="round" stroke-linejoin="round" /><circle cx="993" cy="222" r="4" fill="#fecaca" fill-opacity="0.6" /><circle cx="503" cy="318" r="3" fill="#a5f3fc" fill-opacity="0.4" /><circle cx="477" cy="318" r="3" fill="#a5f3fc" fill-opacity="0.4" /><circle cx="440" cy="428" r="3" fill="#a5f3fc" fill-opacity="0.4" /><path d="M 535 318 L 583 318 L 503 318 L 477 318 L 410 318 L 410 340 L 464 340 L 464 400 L 464 428 L 516 428 L 440 428" stroke="#a5f3fc" stroke-width="2" fill="none" stroke-opacity="0.4" stroke-linecap="round" stroke-linejoin="round" /><circle cx="440" cy="428" r="4" fill="#a5f3fc" fill-opacity="0.6" /><circle cx="1528" cy="845" r="1.5" fill="#fde68a" fill-opacity="0.4" /><path d="M 1572 845 L 1528 845 L 1528 801 L 1488 801 L 1447 801 L 1447 865 L 1383 865 L 1383 814 L 1383 763 L 1383 808" stroke="#fde68a" stroke-width="1" fill="none" stroke-opacity="0.4" stroke-linecap="round" stroke-linejoin="round" /><circle cx="1383" cy="808" r="2" fill="#fde68a" fill-opacity="0.6" /><path d="M 633 255 L 633 310 L 633 345 L 690 345" stroke="#fecaca" stroke-width="1" fill="none" stroke-opacity="0.4" stroke-linecap="round" stroke-linejoin="round" /><circle cx="690" cy="345" r="2" fill="#fecaca" fill-opacity="0.6" /><circle cx="694" cy="108" r="1.5" fill="#fde68a" fill-opacity="0.4" /><circle cx="694" cy="158" r="1.5" fill="#fde68a" fill-opacity="0.4" /><circle cx="845" cy="137" r="1.5" fill="#fde68a" fill-opacity="0.4" /><path d="M 754 108 L 694 108 L 694 158 L 720 158 L 787 158 L 845 158 L 845 203 L 845 137" stroke="#fde68a" stroke-width="1" fill="none" stroke-opacity="0.4" stroke-linecap="round" stroke-linejoin="round" /><circle cx="845" cy="137" r="2" fill="#fde68a" fill-opacity="0.6" /><path d="M 1362 68 L 1362 139 L 1362 186" stroke="#ddd6fe" stroke-width="2" fill="none" stroke-opacity="0.4" stroke-linecap="round" stroke-linejoin="round" /><circle cx="1362" cy="186" r="4" fill="#ddd6fe" fill-opacity="0.6" /><circle cx="666" cy="439" r="3" fill="#ddd6fe" fill-opacity="0.4" /><path d="M 736 485 L 736 439 L 666 439 L 666 360 L 690 360 L 690 293" stroke="#ddd6fe" stroke-width="2" fill="none" stroke-opacity="0.4" stroke-linecap="round" stroke-linejoin="round" /><circle cx="690" cy="293" r="4" fill="#ddd6fe" fill-opacity="0.6" /><path d="M 2 581 L 64 581 L 64 508 L 32 508 L 32 463" stroke="#fde68a" stroke-width="1" fill="none" stroke-opacity="0.4" stroke-linecap="round" stroke-linejoin="round" /><circle cx="32" cy="463" r="2" fill="#fde68a" fill-opacity="0.6" /><circle cx="850" cy="352" r="4.5" fill="#fde68a" fill-opacity="0.4" /><circle cx="729" cy="352" r="4.5" fill="#fde68a" fill-opacity="0.4" /><circle cx="750" cy="276" r="4.5" fill="#fde68a" fill-opacity="0.4" /><path d="M 780 352 L 850 352 L 794 352 L 729 352 L 729 326 L 750 326 L 750 276" stroke="#fde68a" stroke-width="3" fill="none" stroke-opacity="0.4" stroke-linecap="round" stroke-linejoin="round" /><circle cx="750" cy="276" r="6" fill="#fde68a" fill-opacity="0.6" /><circle cx="1305" cy="90" r="3" fill="#a5f3fc" fill-opacity="0.4" /><circle cx="1332" cy="90" r="3" fill="#a5f3fc" fill-opacity="0.4" /><circle cx="1276" cy="25" r="3" fill="#a5f3fc" fill-opacity="0.4" /><circle cx="1276" cy="51" r="3" fill="#a5f3fc" fill-opacity="0.4" /><path d="M 1300 113 L 1300 90 L 1248 90 L 1305 90 L 1332 90 L 1306 90 L 1306 25 L 1333 25 L 1276 25 L 1276 51 L 1311 51 L 1311 14 L 1311 -64" stroke="#a5f3fc" stroke-width="2" fill="none" stroke-opacity="0.4" stroke-linecap="round" stroke-linejoin="round" /><circle cx="1311" cy="-64" r="4" fill="#a5f3fc" fill-opacity="0.6" /><circle cx="1844" cy="46" r="4.5" fill="#ddd6fe" fill-opacity="0.4" /><path d="M 1846 46 L 1781 46 L 1844 46 L 1844 12 L 1773 12 L 1773 53" stroke="#ddd6fe" stroke-width="3" fill="none" stroke-opacity="0.4" stroke-linecap="round" stroke-linejoin="round" /><circle cx="1773" cy="53" r="6" fill="#ddd6fe" fill-opacity="0.6" /><circle cx="1187" cy="712" r="1.5" fill="#a5f3fc" fill-opacity="0.4" /><circle cx="1215" cy="633" r="1.5" fill="#a5f3fc" fill-opacity="0.4" /><path d="M 1152 671 L 1187 671 L 1187 712 L 1215 712 L 1215 633 L 1215 597 L 1215 558 L 1215 500 L 1162 500" stroke="#a5f3fc" stroke-width="1" fill="none" stroke-opacity="0.4" stroke-linecap="round" stroke-linejoin="round" /><circle cx="1162" cy="500" r="2" fill="#a5f3fc" fill-opacity="0.6" /><circle cx="700" cy="1066" r="4.5" fill="#fecaca" fill-opacity="0.4" /><circle cx="700" cy="1095" r="4.5" fill="#fecaca" fill-opacity="0.4" /><circle cx="798" cy="1038" r="4.5" fill="#fecaca" fill-opacity="0.4" /><circle cx="723" cy="1070" r="4.5" fill="#fecaca" fill-opacity="0.4" /><path d="M 671 1066 L 700 1066 L 700 1145 L 700 1095 L 700 1038 L 744 1038 L 798 1038 L 798 1070 L 723 1070" stroke="#fecaca" stroke-width="3" fill="none" stroke-opacity="0.4" stroke-linecap="round" stroke-linejoin="round" /><circle cx="723" cy="1070" r="6" fill="#fecaca" fill-opacity="0.6" /><circle cx="909" cy="309" r="3" fill="#fde68a" fill-opacity="0.4" /><path d="M 981 455 L 981 387 L 981 309 L 909 309" stroke="#fde68a" stroke-width="2" fill="none" stroke-opacity="0.4" stroke-linecap="round" stroke-linejoin="round" /><circle cx="909" cy="309" r="4" fill="#fde68a" fill-opacity="0.6" /><circle cx="507" cy="752" r="3" fill="#fecaca" fill-opacity="0.4" /><circle cx="507" cy="799" r="3" fill="#fecaca" fill-opacity="0.4" /><path d="M 466 675 L 466 732 L 466 752 L 507 752 L 507 799 L 507 721 L 527 721" stroke="#fecaca" stroke-width="2" fill="none" stroke-opacity="0.4" stroke-linecap="round" stroke-linejoin="round" /><circle cx="527" cy="721" r="4" fill="#fecaca" fill-opacity="0.6" /><path d="M 1314 664 L 1314 702 L 1314 639 L 1380 639 L 1428 639 L 1398 639 L 1398 684 L 1419 684" stroke="#a5f3fc" stroke-width="1" fill="none" stroke-opacity="0.4" stroke-linecap="round" stroke-linejoin="round" /><circle cx="1419" cy="684" r="2" fill="#a5f3fc" fill-opacity="0.6" /><path d="M 1807 649 L 1807 709 L 1770 709 L 1816 709 L 1816 685 L 1869 685" stroke="#fecaca" stroke-width="3" fill="none" stroke-opacity="0.4" stroke-linecap="round" stroke-linejoin="round" /><circle cx="1869" cy="685" r="6" fill="#fecaca" fill-opacity="0.6" /><path d="M 1264 1006 L 1264 937 L 1264 913 L 1264 963" stroke="#a5f3fc" stroke-width="1" fill="none" stroke-opacity="0.4" stroke-linecap="round" stroke-linejoin="round" /><circle cx="1264" cy="963" r="2" fill="#a5f3fc" fill-opacity="0.6" /><circle cx="4" cy="696" r="4.5" fill="#fecaca" fill-opacity="0.4" /><circle cx="-3" cy="696" r="4.5" fill="#fecaca" fill-opacity="0.4" /><path d="M 16 527 L 16 554 L 49 554 L 4 554 L 4 606 L 4 641 L 4 696 L -68 696 L -3 696" stroke="#fecaca" stroke-width="3" fill="none" stroke-opacity="0.4" stroke-linecap="round" stroke-linejoin="round" /><circle cx="-3" cy="696" r="6" fill="#fecaca" fill-opacity="0.6" /><circle cx="1175" cy="866" r="1.5" fill="#fecaca" fill-opacity="0.4" /><circle cx="1300" cy="758" r="1.5" fill="#fecaca" fill-opacity="0.4" /><path d="M 1226 866 L 1175 866 L 1224 866 L 1224 837 L 1224 758 L 1300 758 L 1234 758 L 1234 732" stroke="#fecaca" stroke-width="1" fill="none" stroke-opacity="0.4" stroke-linecap="round" stroke-linejoin="round" /><circle cx="1234" cy="732" r="2" fill="#fecaca" fill-opacity="0.6" /><circle cx="399" cy="598" r="3" fill="#fecaca" fill-opacity="0.4" /><path d="M 481 703 L 546 703 L 491 703 L 426 703 L 399 703 L 399 671 L 399 622 L 399 598 L 439 598 L 439 572" stroke="#fecaca" stroke-width="2" fill="none" stroke-opacity="0.4" stroke-linecap="round" stroke-linejoin="round" /><circle cx="439" cy="572" r="4" fill="#fecaca" fill-opacity="0.6" /><circle cx="1849" cy="57" r="3" fill="#fde68a" fill-opacity="0.4" /><circle cx="1925" cy="25" r="3" fill="#fde68a" fill-opacity="0.4" /><path d="M 1776 57 L 1804 57 L 1879 57 L 1849 57 L 1849 25 L 1925 25 L 1996 25" stroke="#fde68a" stroke-width="2" fill="none" stroke-opacity="0.4" stroke-linecap="round" stroke-linejoin="round" /><circle cx="1996" cy="25" r="4" fill="#fde68a" fill-opacity="0.6" /><circle cx="553" cy="1014" r="1.5" fill="#bae6fd" fill-opacity="0.4" /><circle cx="381" cy="1056" r="1.5" fill="#bae6fd" fill-opacity="0.4" /><path d="M 578 1039 L 578 1014 L 533 1014 L 553 1014 L 503 1014 L 447 1014 L 447 1056 L 381 1056 L 381 1003" stroke="#bae6fd" stroke-width="1" fill="none" stroke-opacity="0.4" stroke-linecap="round" stroke-linejoin="round" /><circle cx="381" cy="1003" r="2" fill="#bae6fd" fill-opacity="0.6" /><circle cx="1011" cy="152" r="1.5" fill="#ddd6fe" fill-opacity="0.4" /><path d="M 955 174 L 955 228 L 1011 228 L 1011 152" stroke="#ddd6fe" stroke-width="1" fill="none" stroke-opacity="0.4" stroke-linecap="round" stroke-linejoin="round" /><circle cx="1011" cy="152" r="2" fill="#ddd6fe" fill-opacity="0.6" /><circle cx="1302" cy="518" r="1.5" fill="#fecaca" fill-opacity="0.4" /><circle cx="1355" cy="552" r="1.5" fill="#fecaca" fill-opacity="0.4" /><path d="M 1260 518 L 1334 518 L 1302 518 L 1369 518 L 1404 518 L 1338 518 L 1394 518 L 1355 518 L 1355 552" stroke="#fecaca" stroke-width="1" fill="none" stroke-opacity="0.4" stroke-linecap="round" stroke-linejoin="round" /><circle cx="1355" cy="552" r="2" fill="#fecaca" fill-opacity="0.6" /><circle cx="474" cy="646" r="4.5" fill="#ddd6fe" fill-opacity="0.4" /><circle cx="474" cy="703" r="4.5" fill="#ddd6fe" fill-opacity="0.4" /><circle cx="494" cy="703" r="4.5" fill="#ddd6fe" fill-opacity="0.4" /><path d="M 446 646 L 474 646 L 474 703 L 494 703 L 494 751 L 435 751" stroke="#ddd6fe" stroke-width="3" fill="none" stroke-opacity="0.4" stroke-linecap="round" stroke-linejoin="round" /><circle cx="435" cy="751" r="6" fill="#ddd6fe" fill-opacity="0.6" /></svg>